<svg width="27" height="27" viewBox="0 0 27 27" fill="none" xmlns="http://www.w3.org/2000/svg">
<path d="M13.5 5.90625C13.5 5.44026 13.1222 5.0625 12.6562 5.0625C12.1903 5.0625 11.8125 5.44026 11.8125 5.90625V15.1875C11.8125 15.4903 11.9747 15.7699 12.2376 15.9201L18.1439 19.2951C18.5485 19.5263 19.0639 19.3857 19.2951 18.9811C19.5263 18.5765 19.3857 18.0611 18.9811 17.8299L13.5 14.6979V5.90625Z" fill="#D5AA6D"/>
<path d="M13.5 27C20.9558 27 27 20.9558 27 13.5C27 6.04416 20.9558 0 13.5 0C6.04416 0 0 6.04416 0 13.5C0 20.9558 6.04416 27 13.5 27ZM25.3125 13.5C25.3125 20.0239 20.0239 25.3125 13.5 25.3125C6.97614 25.3125 1.6875 20.0239 1.6875 13.5C1.6875 6.97614 6.97614 1.6875 13.5 1.6875C20.0239 1.6875 25.3125 6.97614 25.3125 13.5Z" fill="#D5AA6D"/>
</svg>
