<svg xmlns="http://www.w3.org/2000/svg" viewBox="0 0 75.56 75.25"><defs><style>.cls-1{fill:none;stroke:#2e2d2c;stroke-linecap:round;stroke-width:1.84px;stroke-miterlimit:10}</style></defs><path class="cls-1" d="M35.11 65.14v9.19M41.65 65.14v9.19"/><circle class="cls-1" cx="14.14" cy="13.3" r="6.67"/><circle class="cls-1" cx="61.81" cy="8.5" r="7.58"/><circle class="cls-1" cx="38.38" cy="45.05" r="4.71"/><path class="cls-1" d="M-1227 861.57l-3.37-10 4-12.36c1.82-2.33 5.26-3.9 9.2-3.9a11.83 11.83 0 0 1 9 3.69l7.42 22.57s-5.12 2.38-7 .88M-1182.33 858.53v-23.11c2.56-2.33 7.4-3.9 12.95-3.9 5.38 0 10.1 1.48 12.71 3.69v24.29s.15 4.71-5.33 4.71" transform="translate(1231.3 -815.3)"/><path class="cls-1" d="M7.91 28.88L2.1 60.01h23.87L20.14 28.8M17.44 74.33H11L9.3 63.64h9.84l-1.7 10.69zM28.11 47.17l4.67 5.91h11.19l4.41-5.91"/><rect x="32.78" y="52.23" width="11.19" height="12.06" rx=".81" ry=".81" fill="#fff" stroke="#fff" stroke-width="1.98" stroke-miterlimit="10"/><path class="cls-1" d="M69.3 27.32v47.01H54.05V27.32M61.68 74.33V51.89"/><rect x="33.49" y="52.98" width="9.77" height="10.35" rx="1.36" ry="1.36" fill="#004f9f"/></svg>