<svg width="150" height="65" viewBox="0 0 150 65" fill="none" xmlns="http://www.w3.org/2000/svg">
<path d="M19.1159 0.0672989C19.0346 0.104248 18.7959 0.267891 18.5877 0.431526C18.3744 0.595169 17.9782 0.832703 17.6735 0.969948C16.5613 1.48198 16.0179 1.99929 15.51 3.04974C15.2307 3.63567 15.0783 4.07907 14.8244 5.07146C14.4943 6.35946 14.4435 6.49142 14.1997 6.72896C14.0829 6.85037 13.8036 7.09319 13.5801 7.27794C12.9453 7.80053 12.3866 8.33367 11.4166 9.32078C10.924 9.82225 10.5075 10.234 10.4872 10.234C10.4415 10.234 10.5024 9.89615 10.6091 9.56359C10.7361 9.18353 11.0611 8.68734 11.7162 7.86915C12.346 7.09319 12.6507 6.64978 12.8031 6.29611C12.8539 6.16414 12.9656 5.7049 13.0469 5.27205C13.2703 4.06324 13.3719 3.87321 14.1794 3.20282C14.7584 2.72246 14.7736 2.70663 14.7736 2.53771C14.7736 2.25266 14.3927 2.45853 13.7274 3.1078C13.4227 3.40869 12.9453 3.83098 12.671 4.04741C11.2846 5.14009 10.8021 5.75769 10.4364 6.92427C10.1926 7.70551 10.086 8.41813 9.99966 9.92782C9.96919 10.4135 9.92856 10.8621 9.90317 10.936C9.87777 11.0047 9.72033 11.2369 9.55782 11.4534C8.91283 12.2927 8.27799 13.2006 7.73966 14.0293C7.42986 14.5044 7.14037 14.9214 7.09467 14.9531C6.78487 15.1537 7.00325 14.3936 7.63808 13.0317C7.92757 12.4088 8.21197 11.7173 8.27291 11.5009C8.34402 11.2264 8.38972 10.8041 8.42527 10.102C8.4913 8.87209 8.54716 8.44452 8.68429 8.15947C8.80617 7.91138 9.23786 7.34656 9.51719 7.0668C9.93872 6.64978 9.96411 6.21165 9.55782 6.44919C9.43085 6.52309 9.16168 6.83981 8.80617 7.33073C8.66905 7.52076 8.28815 7.96944 7.95804 8.33367C6.85597 9.54776 6.52078 10.1073 6.44967 10.878C6.39889 11.3847 6.4192 12.7097 6.49538 13.5701C6.56141 14.3461 6.56141 15.3965 6.4903 15.8294C6.45475 16.0827 6.29731 16.4839 5.91641 17.3338C5.31205 18.6587 4.9921 19.4611 4.74324 20.2318C4.60104 20.6699 4.55025 20.7702 4.45884 20.7807C4.34711 20.8018 4.34711 20.7913 4.37758 20.332C4.39789 20.0312 4.48931 19.5614 4.64167 18.986C4.76864 18.5004 4.8956 17.9197 4.92607 17.6927C4.99718 17.1701 4.95655 16.3836 4.81942 15.671C4.75848 15.3648 4.69754 14.8528 4.6823 14.5361C4.65183 13.8393 4.71785 13.5912 5.14954 12.8364C5.47965 12.261 5.73358 11.7226 5.73358 11.5906C5.73358 11.5273 5.69295 11.5009 5.60662 11.5009C5.36792 11.5009 5.22572 11.7173 4.28616 13.4698C2.83874 16.1777 2.80319 16.4258 3.47866 19.3555C3.57515 19.7831 3.73259 20.4059 3.82908 20.7385C3.92558 21.0711 4.02715 21.525 4.05762 21.7414C4.12365 22.1743 4.1338 22.0951 3.78338 23.6945C3.6818 24.1432 3.55484 24.8189 3.49897 25.199C3.44311 25.5737 3.372 25.9749 3.34153 26.0805C3.21964 26.5661 3.06728 26.2494 3.11299 25.5949C3.13331 25.3468 3.1587 24.7292 3.17394 24.2171C3.21457 23.0769 3.15362 22.7813 2.66607 21.6992C2.17344 20.6013 2.10742 20.3743 2.10742 19.8147C2.10742 19.3924 2.12773 19.2658 2.3258 18.6798C2.44769 18.3103 2.55434 17.8722 2.56958 17.6822C2.60005 17.3654 2.59497 17.3496 2.50355 17.4024C2.21407 17.5608 2.06171 17.9355 1.62494 19.5455C1.19326 21.108 1.08661 21.7309 1.12723 22.4224C1.17802 23.3514 1.42688 23.9849 2.74225 26.5978L3.20949 27.5268L3.15362 28.2975C3.07236 29.3269 3.07744 30.3562 3.16886 31.6653C3.20949 32.2618 3.24504 32.7791 3.24504 32.8108C3.24504 32.9164 3.11807 32.89 3.00634 32.758C2.85906 32.5944 2.75749 32.2037 2.61528 31.1797C2.54418 30.6993 2.45277 30.1503 2.40706 29.9656C2.28517 29.4747 1.93982 28.7621 1.4929 28.0758C1.02058 27.3474 0.781885 26.867 0.670155 26.4236C0.588896 26.0911 0.588896 25.9802 0.685391 24.3913L0.720941 23.8529H0.563503C0.426379 23.8529 0.400986 23.8793 0.324806 24.101C0.274019 24.2646 0.218154 24.7503 0.172446 25.4365C0.131816 26.033 0.075951 26.7931 0.0404004 27.1257C-0.0662516 28.2553 0.0404004 29.2266 0.334963 29.8389C0.644761 30.4829 1.42688 31.5967 2.31564 32.6683C2.93524 33.4178 3.2298 33.8032 3.3263 33.9985C3.36693 34.0829 3.45834 34.4999 3.52944 34.9275C3.59547 35.3551 3.78845 36.2841 3.96113 36.9862C4.12872 37.6935 4.25569 38.2847 4.24046 38.3059C4.19983 38.3481 4.00684 38.1528 3.9205 37.9839C3.87987 37.8994 3.74782 37.5141 3.62594 37.1287C3.372 36.3158 3.03173 35.6032 2.72701 35.2284C2.6102 35.0806 2.23438 34.7058 1.88903 34.3944C1.20849 33.7715 0.858065 33.3175 0.695548 32.8425C0.639683 32.6735 0.533031 32.2143 0.46193 31.8237C0.329884 31.1269 0.319727 31.1111 0.182603 31.0952C0.045479 31.0794 0.045479 31.0847 0.045479 31.3644C0.045479 31.5228 0.101344 31.9451 0.172446 32.304C0.243547 32.663 0.370514 33.3756 0.451772 33.8823C0.736177 35.6032 0.87838 35.9463 1.61479 36.7434C2.09218 37.2607 2.75749 37.8466 3.96113 38.802C4.46392 39.2032 4.62136 39.3563 4.6823 39.5147C4.72293 39.6255 4.84482 39.9528 4.94639 40.2431C5.15969 40.8343 5.64217 41.9692 6.03322 42.798C6.29224 43.3522 6.33794 43.4895 6.24145 43.4895C6.08401 43.4895 5.7285 42.9827 5.33237 42.1909C4.60612 40.7288 4.26077 40.3593 3.25519 39.9528C2.07187 39.4724 1.8484 39.2771 1.41672 38.3428C1.25928 37.9944 1.08153 37.6671 1.02566 37.6144C0.924088 37.5246 0.919009 37.5246 0.893616 37.6355C0.852987 37.7991 0.934245 38.2056 1.09168 38.5909C1.33546 39.1927 2.16836 40.866 2.43245 41.2883C2.89461 42.0115 3.20949 42.2912 4.21506 42.8402C4.70261 43.1042 5.40855 43.4684 5.78437 43.6479C6.16019 43.822 6.52078 44.0015 6.57664 44.0438C6.63759 44.086 6.8966 44.4819 7.15561 44.9253C7.85139 46.1183 8.71476 47.3799 9.5375 48.3986C9.73557 48.6467 9.89809 48.8684 9.89809 48.8948C9.89809 48.9687 9.62892 48.8737 9.38006 48.7101C9.0855 48.5148 8.86712 48.2667 8.3491 47.5541C7.52635 46.4139 7.1099 46.1077 5.88594 45.7329C4.71785 45.3792 4.1592 44.957 3.60562 44.0174C3.18409 43.31 3.05205 43.1517 2.95555 43.2361C2.89969 43.2836 2.88445 43.3734 2.89969 43.574C2.92 43.8062 3.00126 43.9804 3.4685 44.788C4.43344 46.4719 5.1343 47.364 5.77929 47.7652C6.277 48.0714 7.12514 48.4356 8.62842 48.9793C10.4821 49.6497 10.7107 49.7658 11.1068 50.2303C11.4877 50.6737 12.7066 51.8509 13.4735 52.5107C14.0169 52.9805 14.1997 53.1811 14.1489 53.2392C14.1337 53.2497 13.9966 53.2286 13.8442 53.1811C13.4582 53.065 12.9097 52.6743 12.2597 52.0462C11.1424 50.9693 10.731 50.774 9.57305 50.774C8.76555 50.774 8.29831 50.7107 8.02406 50.5682C7.92249 50.5101 7.67871 50.3148 7.48572 50.13C7.09467 49.7605 6.85597 49.5599 6.8001 49.5599C6.71884 49.5599 6.64774 49.8292 6.69853 49.9294C6.83565 50.1934 7.33336 50.7371 8.1815 51.5394C9.8473 53.1178 10.3552 53.3659 12.2597 53.5137C13.5141 53.6139 14.6212 53.7301 14.8498 53.7829C15.0021 53.8198 15.3424 54.0151 15.83 54.3582C16.6324 54.9125 17.6532 55.5565 18.4353 55.9893C18.7045 56.1424 18.9635 56.3113 19.0092 56.3641C19.0955 56.4644 19.0955 56.4697 18.928 56.5014C18.6943 56.5489 18.2271 56.4539 17.9021 56.3008C17.7599 56.2322 17.3231 55.9524 16.932 55.6779C15.9874 55.0181 15.9366 55.0022 14.5197 55.0075C12.8996 55.0181 12.2698 54.8703 11.4369 54.2791C11.1728 54.089 10.924 53.9465 10.8833 53.9623C10.8427 53.9782 10.8122 54.0626 10.8122 54.1576C10.8122 54.3635 10.9798 54.5377 11.6807 55.0814C12.3409 55.5934 12.8285 55.9313 13.4532 56.3061C14.6416 57.0134 15.1901 57.1348 16.6222 57.0028C17.4145 56.9342 19.4714 56.8181 19.7913 56.8286C19.9995 56.8339 20.223 56.9131 20.8071 57.177C21.7009 57.5888 23.0366 58.0955 23.7374 58.2961C24.0168 58.3806 24.2605 58.4598 24.2859 58.4809C24.3063 58.4967 24.291 58.56 24.2504 58.6181C24.1894 58.7026 24.1031 58.7237 23.7222 58.7342C23.1737 58.7606 22.8741 58.6815 22.2392 58.3489C21.6806 58.0586 21.2184 57.9002 20.9188 57.9002C20.7918 57.9002 20.4008 57.9847 20.0503 58.0902C19.4714 58.2644 19.3495 58.2803 18.5724 58.3067C17.4653 58.3436 17.1047 58.2856 16.3632 57.9477C15.7132 57.6521 15.637 57.6363 15.637 57.8158C15.637 58.0797 16.2667 58.4545 17.6177 58.9823C19.6796 59.7952 20.5836 59.98 21.6349 59.8216C22.7573 59.6527 24.1437 59.2568 24.9462 58.8873L25.2407 58.7501L25.6318 58.8504C26.5713 59.0932 28.227 59.3888 29.6185 59.563C30.0045 59.6158 29.9994 59.7319 29.6033 59.8744C29.2478 60.0011 28.8466 59.9958 28.2118 59.8586C27.3738 59.6738 27.064 59.6633 26.7085 59.7952C26.5409 59.8586 26.2412 60.0064 26.0432 60.1278C25.322 60.5501 24.9665 60.6557 23.8543 60.7718C23.189 60.8457 23.0569 60.8457 22.61 60.7718C22.3357 60.7296 22.0056 60.6768 21.8736 60.6609L21.6349 60.6293L21.6755 60.7824C21.7415 61.041 21.965 61.1149 23.3565 61.3577C23.6206 61.4052 24.1844 61.5003 24.6008 61.5742C25.9314 61.8011 26.9268 61.8011 27.6074 61.5636C28.2575 61.3366 29.7912 60.4709 30.5886 59.8797C30.812 59.7108 30.8628 59.695 31.1828 59.695C31.3758 59.695 31.5332 59.7161 31.5332 59.7372C31.5332 59.8005 31.2945 60.017 30.9745 60.2334C30.4007 60.6346 29.8014 61.173 28.7653 62.2287C28.1813 62.8305 27.5718 63.4164 27.4246 63.5431C26.871 63.9918 26.1701 64.2663 25.4032 64.3349C24.9817 64.3718 24.9665 64.3771 25.1087 64.4405C25.3982 64.5672 26.3784 64.81 26.9624 64.8997C27.2824 64.9472 27.8613 64.9894 28.2524 64.9947L28.9532 65L29.0954 64.4721C29.6338 62.4979 30.5784 60.9038 31.6398 60.1753C32.102 59.8639 32.4321 59.7636 32.7114 59.848C33.0771 59.9589 33.4428 60.2123 33.8846 60.6451C34.8039 61.5478 35.5301 62.936 35.9262 64.5249L36.043 65L36.749 64.9947C37.135 64.9947 37.6581 64.963 37.9069 64.9261C38.3589 64.8575 39.3747 64.6199 39.8114 64.4774L40.04 64.4035L39.7352 64.3718C38.8668 64.2715 38.4046 64.129 37.912 63.8017C37.7698 63.7067 37.1502 63.1155 36.5357 62.4926C35.3879 61.3261 34.6363 60.6504 33.971 60.1859C33.7627 60.0381 33.5443 59.8692 33.4936 59.8058L33.3971 59.695H33.778H34.1639L34.7937 60.1331C35.4946 60.624 36.8455 61.3577 37.4549 61.5742C37.8206 61.7061 37.9272 61.722 38.5925 61.722C39.3289 61.722 39.8114 61.6744 40.8525 61.4897C41.1623 61.4316 41.721 61.3419 42.0968 61.2786C42.5894 61.2046 42.8688 61.1255 43.1024 61.0146C43.397 60.8721 43.4173 60.851 43.3665 60.7454C43.3208 60.6557 43.2751 60.6398 43.1481 60.6609C42.4828 60.7771 41.6042 60.8193 41.0405 60.7612C40.172 60.6715 39.8724 60.5765 39.0039 60.1278L38.2218 59.7213L37.785 59.7266C37.5362 59.7266 37.1197 59.7794 36.815 59.848C36.0786 60.0117 35.7231 60.0011 35.2051 59.7952C35.1035 59.753 35.0883 59.7319 35.139 59.6686C35.2152 59.5735 35.5606 59.5049 36.3325 59.431C37.0689 59.3571 38.0593 59.1776 39.0496 58.9348L39.786 58.7554L40.2177 58.9401C41.1877 59.3624 42.239 59.6527 43.4071 59.8269C44.5244 59.9958 45.4995 59.7689 47.8357 58.7976C48.6686 58.4545 49.0292 58.2539 49.2933 57.99C49.4202 57.8685 49.4456 57.8105 49.405 57.7577C49.3136 57.6521 49.2273 57.6732 48.6229 57.953C47.8814 58.2908 47.7494 58.3172 46.8149 58.3225C45.9414 58.3225 45.6824 58.2856 44.8748 58.048C44.0927 57.821 43.8947 57.8421 42.9856 58.2539C42.107 58.6551 41.7565 58.7606 41.335 58.7606C40.9947 58.7606 40.6189 58.6234 40.7103 58.5284C40.7307 58.5073 41.1776 58.3383 41.6905 58.1589C42.7113 57.8105 44.1334 57.2404 44.5955 56.9976C44.9663 56.8023 45.1694 56.8023 47.6783 56.9606C49.4507 57.0715 49.5472 57.0715 49.9484 56.987C50.7661 56.8128 51.3755 56.4855 52.8128 55.4509C53.8336 54.7172 54.0114 54.5641 54.1739 54.2632L54.2907 54.0468L54.1688 53.9887C54.0621 53.9359 53.986 53.9782 53.4578 54.3318C52.9042 54.7119 52.8433 54.7436 52.3456 54.8492C51.9291 54.9389 51.5584 54.9653 50.502 54.9917L49.1816 55.0233L48.8464 55.187C48.6585 55.282 48.2623 55.5354 47.9627 55.7571C47.1755 56.3377 46.9469 56.438 46.3629 56.4644L45.8804 56.4855L45.9769 56.3747C46.0328 56.3166 46.3375 56.116 46.6625 55.9418C47.5005 55.4773 48.4096 54.9072 49.2273 54.3213C49.6183 54.0468 50.0145 53.7987 50.116 53.7776C50.2176 53.7512 50.8727 53.6826 51.5685 53.6245C54.1739 53.4081 54.5395 53.3236 55.3572 52.7694C55.9819 52.3471 56.6573 51.7506 57.4598 50.9113C58.2063 50.13 58.4146 49.8344 58.3181 49.6814C58.2876 49.6338 58.2419 49.5863 58.2114 49.5758C58.1809 49.5652 57.9321 49.7605 57.6578 50.0139C57.3785 50.262 57.0738 50.5101 56.9773 50.5629C56.698 50.7107 56.2612 50.774 55.4842 50.774C54.2704 50.774 53.9301 50.9324 52.7417 52.0567C52.4014 52.3682 51.9799 52.7324 51.7971 52.8538C51.467 53.0808 50.8931 53.3395 50.8423 53.2814C50.7813 53.218 51.0505 52.9383 51.7768 52.3048C52.1932 51.9406 52.9702 51.2069 53.4984 50.6685L54.4634 49.6919L55.987 49.1165C58.0895 48.3247 58.6025 48.1136 59.0748 47.8602C59.8214 47.4538 60.3597 46.7887 61.5329 44.8092C62.0509 43.9329 62.0864 43.8537 62.1321 43.5212C62.1677 43.2783 62.1677 43.2783 62.0204 43.2783C61.8731 43.2783 61.7462 43.442 61.1723 44.3974C60.832 44.9675 60.1413 45.4162 59.1103 45.7329C57.8 46.1394 57.4852 46.3875 56.4491 47.8285C56.2917 48.0502 56.0479 48.3406 55.9108 48.4673C55.6315 48.7312 55.2353 48.9582 55.2099 48.8737C55.1845 48.7998 55.2658 48.6731 55.8041 47.9763C56.571 46.984 57.4191 45.6854 58.2114 44.3077C58.3485 44.0649 58.3841 44.0438 59.5573 43.4525C61.5379 42.4549 61.6497 42.3915 62.1118 41.9006C62.5181 41.473 62.9143 40.8291 63.3459 39.8947C63.8995 38.6912 64.1382 38.0472 64.1382 37.7674C64.1382 37.6355 64.1179 37.5246 64.0925 37.5246C64.0011 37.5246 63.798 37.8624 63.6507 38.2372C63.4678 38.7229 63.3409 38.9235 63.0362 39.2243C62.7517 39.4988 62.3556 39.7205 61.736 39.9581C60.7914 40.317 60.3749 40.7763 59.6741 42.2015C59.5065 42.5552 59.2932 42.9405 59.2119 43.0566C59.0596 43.2783 58.7548 43.4948 58.7548 43.3786C58.7548 43.347 58.9631 42.8561 59.217 42.286C59.6944 41.2091 60.055 40.3329 60.1972 39.8736C60.3445 39.3985 60.4765 39.2455 61.345 38.5592C62.2591 37.8308 63.5491 36.6695 63.7776 36.3686C63.8589 36.263 63.9706 36.0783 64.0316 35.9569C64.1535 35.6982 64.5191 34.2624 64.5699 33.8296C64.5902 33.6712 64.6816 33.1222 64.7731 32.6155C65.0219 31.2747 65.0371 31.1586 64.9153 31.0952C64.8645 31.0635 64.7883 31.0583 64.7578 31.0794C64.7223 31.1005 64.641 31.3908 64.5699 31.7234C64.3312 32.8636 64.2906 33.0114 64.123 33.2911C63.9655 33.5656 63.544 34.009 62.7467 34.7428C62.1169 35.3287 61.8274 35.8354 61.3957 37.1287C61.2485 37.5616 61.1012 37.9786 61.0656 38.0525C60.9894 38.2003 60.7355 38.4642 60.7355 38.3903C60.7355 38.3639 60.8726 37.7622 61.0402 37.0495C61.2078 36.3369 61.4008 35.392 61.4719 34.9434C61.543 34.4947 61.6497 34.046 61.7005 33.9404C61.7512 33.8348 61.995 33.5234 62.2337 33.2489C62.7467 32.663 63.7522 31.3433 64.1535 30.7415C64.5191 30.1873 64.834 29.5275 64.9254 29.1157C65.0117 28.7409 65.027 27.2524 64.9508 26.7034C64.9254 26.5133 64.8797 25.9855 64.8543 25.5315C64.8137 24.8822 64.6816 23.9268 64.6309 23.8687C64.6258 23.8635 64.5597 23.8476 64.4785 23.8265L64.3414 23.7896V24.2805C64.3414 24.555 64.3668 25.03 64.3972 25.3362C64.448 25.8166 64.448 25.9485 64.3718 26.2916C64.2652 26.7931 63.9757 27.3896 63.4374 28.2184C62.7721 29.2371 62.5943 29.7544 62.3556 31.375C62.254 32.0876 62.1677 32.5046 62.0915 32.663C61.9899 32.8794 61.8376 33.043 61.7868 32.985C61.7766 32.9691 61.797 32.4941 61.8376 31.9292C61.9036 31.016 61.9036 29.8283 61.8427 27.6324C61.8427 27.5427 61.9747 27.2049 62.1677 26.8142C62.3455 26.45 62.7213 25.6846 63.0006 25.1198C63.8487 23.3937 63.9808 22.813 63.8132 21.5039C63.671 20.3954 63.2291 18.7326 62.8432 17.8458C62.6857 17.5027 62.6603 17.4657 62.5232 17.4657H62.3759L62.4166 17.7138C62.4419 17.8458 62.5588 18.2575 62.6756 18.6218C62.833 19.1285 62.8889 19.3977 62.9092 19.7408C62.9346 20.3004 62.8939 20.4482 62.3759 21.6253C62.1677 22.1004 61.9493 22.6863 61.8935 22.9186C61.7817 23.3673 61.7817 23.552 61.8833 25.6318L61.9138 26.2811H61.7868C61.6649 26.2811 61.6548 26.26 61.6243 25.9749C61.5379 25.2042 61.3754 24.2699 61.157 23.3514C60.8574 22.0898 60.8574 21.9209 61.1367 20.8969C61.7157 18.7854 61.9544 17.5713 61.9544 16.7742C61.9544 16.0775 61.7157 15.3173 61.2028 14.3513C60.2937 12.6463 60.0956 12.2874 59.8823 11.9548C59.6081 11.5325 59.5319 11.4745 59.349 11.522L59.217 11.5536L59.3186 11.8017C59.3744 11.9337 59.5471 12.2663 59.6995 12.5408C60.3191 13.6387 60.4206 13.9871 60.3343 14.7472C60.3038 15.0164 60.2327 15.4704 60.1769 15.7555C59.9483 16.9009 59.9839 17.4763 60.3597 18.9068C60.5679 19.6933 60.7406 20.6963 60.6796 20.7596C60.6644 20.7755 60.6085 20.7755 60.5578 20.7596C60.4816 20.7385 60.3952 20.5537 60.2073 20.0364C59.8823 19.118 59.603 18.4423 59.0596 17.244C58.8107 16.7003 58.572 16.1355 58.5314 15.9824C58.4247 15.6235 58.4247 14.5572 58.5263 13.4276C58.5669 12.963 58.6025 12.2399 58.6025 11.8176C58.6025 10.2868 58.3841 9.79586 57.1043 8.39174C56.7488 8.00111 56.3222 7.48909 56.1495 7.25682C55.6772 6.61283 55.4588 6.38057 55.3166 6.38057C55.022 6.38057 55.1388 6.6445 55.7584 7.35712C56.4288 8.1278 56.505 8.37062 56.571 9.89087C56.632 11.3953 56.7132 11.7015 57.4953 13.2956C57.9016 14.1244 58.0438 14.5361 58.0438 14.8845C58.0438 15.1959 57.9016 15.0428 57.3836 14.193C56.9468 13.4698 56.444 12.7413 55.6772 11.7278C55.3623 11.3214 55.0931 10.9149 55.0779 10.8305C55.0626 10.7513 55.022 10.2445 54.9966 9.70612C54.9052 7.99056 54.7122 7.08263 54.2602 6.18526C53.8438 5.36179 53.4883 4.97117 52.3557 4.05796C51.9799 3.7518 51.4517 3.28728 51.1825 3.02335C50.8321 2.66968 50.6341 2.51659 50.4817 2.46909C50.0094 2.32129 50.1668 2.68023 50.7864 3.16587C51.2943 3.56705 51.6142 3.94711 51.7463 4.30606C51.8021 4.4697 51.8986 4.88143 51.9545 5.22982C52.0104 5.57821 52.1018 5.98995 52.1576 6.15359C52.2999 6.53893 52.7569 7.23571 53.3004 7.88498C53.9149 8.624 54.1739 8.9935 54.3415 9.36829C54.4888 9.70084 54.5903 10.234 54.5091 10.234C54.4837 10.234 54.1536 9.91199 53.7777 9.51609C52.9296 8.62928 51.7514 7.5102 51.213 7.08263C50.5782 6.58116 50.6036 6.62339 50.2735 5.39346C49.918 4.08435 49.7758 3.65678 49.4812 3.02863C49.0089 2.0204 48.4959 1.51365 47.4751 1.04385C47.1501 0.896049 46.7641 0.679626 46.6118 0.568771C46.4594 0.457924 46.241 0.294281 46.1242 0.204544C46.0074 0.114807 45.8398 0.0303497 45.7535 0.0145111C45.4894 -0.0435486 45.5605 0.157036 45.9617 0.605721C46.2562 0.943558 46.3781 1.13887 46.6727 1.75647C47.1856 2.84915 47.5767 3.35062 48.6737 4.31662C48.9835 4.58583 49.3187 4.90783 49.4253 5.02396C49.6437 5.27733 49.8672 5.68906 49.8672 5.8527C49.8672 5.98995 49.8519 5.98467 48.9276 5.35123C48.5366 5.0873 47.9119 4.68084 47.5361 4.44858C46.8758 4.04741 46.8403 4.01045 46.3629 3.42452C45.0272 1.78286 43.9962 1.14415 42.1222 0.811592C40.8627 0.58989 38.7652 0.626839 37.8155 0.896049C37.6124 0.948837 37.2721 1.2286 37.333 1.28667C37.3483 1.30251 37.6784 1.34473 38.0694 1.37113C38.9125 1.42919 39.141 1.48198 39.5067 1.69313C39.8978 1.92011 40.1466 2.12598 40.8983 2.83331C42.2035 4.06852 42.6555 4.30606 43.8794 4.42747C44.3873 4.48026 44.9967 4.44858 45.9922 4.3219C46.4797 4.25855 46.4238 4.23216 47.531 4.91838C48.7194 5.65211 49.9687 6.56004 49.9687 6.69729C49.9687 6.7184 49.8062 6.77119 49.6132 6.80814C48.9733 6.92427 48.8362 6.87676 47.0993 5.94244C46.175 5.44625 45.5808 5.34595 44.5854 5.51487C43.6763 5.66795 42.7317 5.74713 41.8124 5.74713H40.8932L40.9135 5.87382C40.944 6.03746 40.9592 6.04274 41.6601 6.14303C41.98 6.19054 42.3101 6.2486 42.4015 6.27499C42.4879 6.30139 42.9399 6.53365 43.4071 6.79758C44.5955 7.45741 44.819 7.54715 45.3726 7.57882C45.6265 7.59466 46.7082 7.55243 47.7798 7.49437C48.8514 7.43102 49.9992 7.38351 50.3293 7.38351H50.9286L51.4517 7.81636C52.0104 8.28616 54.0215 10.3026 54.3415 10.7249C54.5954 11.0522 54.6005 11.1841 54.3719 11.1841C54.1333 11.1841 53.6914 11.0416 53.3968 10.8674C53.2546 10.783 52.8788 10.4874 52.5589 10.2076C51.8529 9.59527 51.5076 9.35245 51.1267 9.19409C50.7255 9.02517 50.4665 8.98294 49.1714 8.88793C47.8357 8.79291 47.3482 8.72957 46.9723 8.61872C46.5254 8.48675 46.0074 8.39174 46.0074 8.4498C46.0074 8.60288 46.3223 8.80347 46.8606 8.98822C47.4802 9.20465 47.4548 9.18881 48.6381 10.1865C49.6183 11.0099 49.6894 11.0416 51.1876 11.2633C51.8732 11.3636 52.8839 11.5061 53.4324 11.58C54.5446 11.7331 55.1287 11.8598 55.3267 11.9971C55.4588 12.0868 56.185 13.0739 56.7843 13.9818C57.2109 14.6258 57.6375 15.3596 57.8915 15.8874C58.0895 16.2939 58.0946 16.3044 57.9829 16.3044C57.6071 16.2992 57.1398 15.8927 56.3425 14.8792C55.3775 13.6493 55.0931 13.4804 52.9906 12.9208C52.0408 12.6622 51.7057 12.5513 51.1876 12.2979C50.4766 11.9495 50.3243 11.8915 50.3243 11.9707C50.3243 12.1607 50.4512 12.2927 50.8575 12.5302C51.4771 12.8891 51.6396 13.0264 52.0002 13.4645C53.2546 14.9901 53.3918 15.1484 53.6508 15.2751C53.7879 15.349 54.5903 15.6552 55.4283 15.9613C57.084 16.5684 57.2465 16.6317 58.0489 16.9748L58.5872 17.2071L58.9224 17.9303C59.3033 18.7537 59.6538 19.6247 59.8975 20.3637C60.1464 21.108 60.4359 22.1215 60.4105 22.1532C60.3394 22.2218 60.0753 22.074 59.8721 21.8523C59.6487 21.6095 59.5217 21.3878 58.831 20.1156C58.2419 19.0229 57.9829 18.7854 56.571 18.0675C55.3826 17.4605 54.7884 17.1015 54.2044 16.6423C53.859 16.3731 53.7524 16.315 53.6965 16.3625C53.6559 16.3942 53.6254 16.4522 53.6254 16.4839C53.6254 16.5156 53.8946 16.8165 54.2196 17.149C54.8189 17.7561 54.8189 17.7613 55.3013 18.6957C56.0631 20.1842 55.9311 20.0523 58.12 21.4775C59.5369 22.396 60.5832 23.1192 60.7 23.2617C60.8676 23.4676 61.4872 27.3632 61.3703 27.4846C61.3246 27.5321 61.1012 27.3421 60.9996 27.1679C60.9437 27.0729 60.766 26.6031 60.6085 26.1227C60.0296 24.3913 59.7756 24.0535 58.2063 22.9555C57.1906 22.2376 56.8453 21.9368 56.6726 21.6148C56.5862 21.4617 56.4745 21.2928 56.4187 21.24C56.3222 21.1502 56.3171 21.1502 56.3171 21.2453C56.3171 21.298 56.3983 21.5461 56.4999 21.7942C56.5964 22.0423 56.7538 22.5385 56.8503 22.9027C57.3277 24.7503 57.5309 25.0617 59.2576 26.5978C59.6588 26.9568 60.314 27.5691 60.7101 27.9544C61.4008 28.6248 61.4364 28.667 61.4668 28.8993C61.543 29.5116 61.4719 31.9292 61.3399 33.0747C61.2891 33.4864 61.2688 33.5656 61.1926 33.5656C61.1418 33.5656 61.0656 33.5023 61.0148 33.4284C60.8219 33.1222 60.7761 32.8583 60.7355 31.9029C60.6695 30.2981 60.4968 29.9497 58.9021 28.2606L57.8508 27.1468L57.7086 26.6875C57.6325 26.4394 57.5512 26.2441 57.5258 26.26C57.4547 26.3075 57.4801 26.7351 57.5867 27.189C57.6426 27.4318 57.6883 27.7855 57.6883 27.9755C57.6883 28.3767 57.8051 29.1368 57.9219 29.5275C58.0337 29.8917 58.1149 30.0131 58.9885 31.2219C59.41 31.8026 60.055 32.7474 60.4206 33.3228C61.1774 34.5052 61.152 34.426 61.0098 35.3129C60.8574 36.2472 60.1362 39.0026 60.0042 39.1504C59.9128 39.2507 59.7858 39.1768 59.7249 38.9921C59.6385 38.7387 59.6588 37.8202 59.7706 36.9651C59.9026 35.9516 59.8975 35.8143 59.7401 35.3498C59.5776 34.8747 59.3744 34.4894 58.7904 33.5392C58.1048 32.4307 57.9422 32.0665 57.9422 31.6442C57.9422 31.338 57.9321 31.2958 57.8508 31.2958C57.7645 31.2958 57.7493 31.3591 57.7188 31.9292C57.6985 32.2829 57.6528 32.8319 57.6121 33.1539C57.5207 33.8507 57.5156 34.6689 57.5918 34.9645C57.6223 35.0806 57.8 35.4976 57.993 35.8882C58.5618 37.0601 59.6284 39.8261 59.6334 40.1375C59.6385 40.544 57.7797 44.503 57.5461 44.5875C57.4547 44.6191 57.3734 44.181 57.409 43.8484C57.4293 43.6795 57.5563 43.2361 57.6934 42.8666C57.9829 42.1012 58.1454 41.4625 58.1454 41.1035C58.1454 40.5862 57.9829 40.0109 57.2312 37.8413C56.9671 37.0812 56.9671 37.0759 56.9976 36.6114C57.0179 36.358 57.0129 36.1522 56.9925 36.1522C56.8808 36.1574 56.8199 36.2683 56.7742 36.5533C56.6573 37.2396 56.5507 37.6671 56.3933 38.1053C56.2003 38.6226 56.0276 39.4513 55.9819 40.0795C55.9514 40.4859 55.9616 40.544 56.1546 41.1405C56.4644 42.0748 56.9875 44.2866 57.0738 45.0203L57.1144 45.3634L56.7183 45.9705C55.6365 47.6332 54.1129 49.5599 53.8742 49.5599C53.8539 49.5599 53.8438 49.4808 53.859 49.391C53.925 48.9635 54.1231 48.4567 54.4481 47.8602C54.6411 47.5013 54.8951 47.0104 55.0119 46.7623L55.2252 46.3136L55.2201 45.601C55.2201 45.0414 55.1845 44.6877 55.0525 43.9382C54.8595 42.8191 54.824 41.8848 54.9662 41.4889C55.0119 41.3622 55.0373 41.2461 55.022 41.2302C54.9458 41.1511 54.7427 41.4836 54.6208 41.8742C54.5446 42.1118 54.3466 42.5446 54.179 42.8297C53.7168 43.6373 53.2953 44.8514 53.1632 45.7593C53.082 46.3558 53.1886 48.4989 53.3715 49.8239L53.4172 50.167L52.823 50.7688C51.7564 51.8509 50.2938 53.1072 49.8062 53.3659L49.6132 53.4661V53.2444C49.6132 52.8169 50.0043 52.1782 50.8829 51.1699C51.3857 50.5946 51.5736 50.3201 51.6752 50.0245C51.8326 49.5599 51.9494 48.6045 51.9748 47.6068C52.0002 46.5564 52.051 46.2713 52.2795 45.9071C52.371 45.7646 52.4014 45.6643 52.376 45.5851C52.3456 45.4795 52.3405 45.4795 52.2034 45.6379C52.1221 45.7276 51.9697 45.9652 51.858 46.1658C51.7463 46.3611 51.4466 46.7728 51.1927 47.0684C50.6899 47.6649 50.0805 48.6679 49.8164 49.333C49.6031 49.8661 49.4914 50.4415 49.3339 51.8298C49.1866 53.1653 49.1054 53.767 49.0749 53.862C49.0038 54.0468 47.338 55.1342 46.2105 55.736C45.5909 56.0632 45.0932 56.2849 45.0577 56.248C45.0475 56.2322 45.0526 56.1583 45.0729 56.0738C45.1288 55.8468 45.5046 55.4931 46.2918 54.9336C46.6879 54.6538 47.079 54.353 47.1602 54.2685C47.5005 53.9148 47.7849 53.123 48.3233 51.0696C48.5416 50.2251 48.694 49.7341 48.7753 49.6127C48.8464 49.5124 48.9632 49.3382 49.0343 49.2274C49.1105 49.1218 49.1612 49.0215 49.1511 49.0057C49.0851 48.9423 48.7651 49.1957 48.5467 49.4808C48.4096 49.6602 48.1049 49.9558 47.8763 50.13C47.3228 50.5471 46.5965 51.3283 46.2613 51.8562C45.8601 52.5002 45.6316 53.0386 45.1897 54.4005C44.7885 55.6568 44.4889 56.38 44.2705 56.6439C43.9861 56.987 40.2329 58.3225 39.5524 58.3225H39.3493L39.4254 58.1694C39.588 57.8527 39.9739 57.5782 41.0557 57.0292C42.1882 56.4539 42.6707 56.1266 42.9043 55.7676C43.0821 55.5037 43.3309 54.9811 43.6204 54.2843C43.981 53.4292 44.2146 53.065 44.692 52.6321C44.9764 52.3787 45.1237 52.2045 45.1339 52.1201C45.144 52.0462 45.1339 51.9881 45.1085 51.9881C45.0424 51.9934 44.5041 52.3101 44.0166 52.6321C43.7728 52.7958 43.2497 53.1019 42.8535 53.3131C41.8378 53.8515 41.4315 54.2685 40.4412 55.7782C39.5473 57.1401 39.1664 57.6627 38.7297 58.143C38.1405 58.787 38.171 58.7817 35.9821 59.0615C34.6007 59.241 34.4382 59.2515 34.3976 59.146C34.3011 58.8873 34.8039 58.5864 35.9516 58.2169C37.3178 57.7788 37.7444 57.4515 38.4097 56.343C38.9887 55.3717 39.268 55.0286 39.6794 54.7594C39.8825 54.6274 40.1009 54.4638 40.1669 54.3899C40.2787 54.2685 40.2787 54.2579 40.1872 54.2579C40.045 54.2579 39.6438 54.3794 39.075 54.5958C38.7957 54.7014 38.2624 54.8755 37.8866 54.9758C37.5108 55.0761 37.0791 55.2239 36.9217 55.3031C36.5509 55.4879 35.6926 56.3694 34.9816 57.2932C34.1233 58.407 33.6612 58.9507 33.4225 59.1143C33.1939 59.2727 33.1838 59.2727 32.4931 59.2727H31.7922L31.4976 59.0193C31.1066 58.6762 30.8222 58.3489 30.1213 57.3987C29.4205 56.4539 28.8872 55.8679 28.42 55.5195C28.0645 55.2609 27.6633 55.0972 26.8608 54.8914C26.6221 54.828 26.0939 54.6591 25.6877 54.5166C25.2814 54.3741 24.9055 54.2579 24.8598 54.2579C24.6973 54.2579 24.804 54.3846 25.1899 54.6538C25.7232 55.0233 25.9924 55.3401 26.5206 56.211C27.3128 57.5096 27.6277 57.7471 29.2173 58.275C30.2788 58.6234 30.619 58.8293 30.619 59.1249C30.619 59.1988 30.5784 59.2199 30.4007 59.2199C29.8928 59.2199 27.2011 58.8187 26.8913 58.692C26.5409 58.5548 25.8248 57.6943 24.9665 56.3694C24.1133 55.0497 23.8898 54.7541 23.3362 54.1735C22.8436 53.6667 22.7877 53.6245 22.0361 53.2286C21.6044 53.0016 21.0915 52.706 20.8934 52.5688C20.03 51.967 19.5475 51.8562 20.0707 52.3787C20.1875 52.4949 20.3906 52.6796 20.5125 52.7852C20.7918 53.0175 21.0762 53.5242 21.4774 54.4955C22.097 55.9893 22.2088 56.1108 23.7628 56.9237C25.2966 57.726 25.713 58.0533 25.5556 58.3383C25.5201 58.407 25.3982 58.3806 24.7481 58.1905C23.5191 57.8316 21.9447 57.2668 21.1169 56.8814C20.6547 56.6703 20.482 56.343 19.8523 54.4955C19.3038 52.8908 19.0955 52.3787 18.8213 51.9459C18.5013 51.4497 17.9478 50.8374 17.3383 50.3095C17.0895 50.0931 16.6984 49.7183 16.475 49.4808C16.1144 49.1007 15.8401 48.9054 15.8401 49.0321C15.8401 49.0585 15.9265 49.1904 16.0382 49.333C16.3378 49.7289 16.3785 49.8397 16.7035 51.1119C17.1758 52.9488 17.5212 53.9043 17.8614 54.2738C17.9376 54.3582 18.3084 54.6433 18.6842 54.9072C19.5475 55.5195 19.8929 55.8521 19.9538 56.116C19.9742 56.2269 19.9742 56.3166 19.9488 56.3166C19.8573 56.3166 18.1154 55.3665 17.4907 54.9758C16.3328 54.2474 16.0433 54.0415 15.962 53.8832C15.8858 53.7248 15.8503 53.4661 15.7132 52.1465C15.51 50.2303 15.4186 49.7975 15.0123 48.9529C14.6263 48.1453 14.2708 47.5804 13.7833 47.0209C13.57 46.7781 13.3008 46.4191 13.1941 46.2291C12.9402 45.791 12.6456 45.432 12.6406 45.5587C12.6406 45.6062 12.7218 45.8438 12.8234 46.0813C13.0062 46.5142 13.0062 46.5247 13.0519 47.5224C13.1129 48.9476 13.1383 49.2643 13.2246 49.618C13.377 50.2145 13.4481 50.3306 14.2911 51.3547C15.0682 52.2943 15.3577 52.7746 15.4186 53.2286L15.4491 53.4714L15.3018 53.4134C14.865 53.2392 13.7122 52.2626 12.1632 50.7424L11.6096 50.2039L11.7213 49.0374C12.026 45.8543 11.8585 44.6297 10.863 42.8824C10.6904 42.5816 10.5126 42.1962 10.4618 42.0273C10.3552 41.6631 10.2384 41.4255 10.1266 41.3252C9.99458 41.2144 9.98442 41.3041 10.0758 41.6684C10.1876 42.0959 10.1622 42.5763 9.95395 44.0174C9.66447 45.981 9.6797 46.1447 10.218 47.1845C10.8681 48.4514 11.0713 48.9001 11.1271 49.2274C11.1576 49.4121 11.1678 49.5758 11.1474 49.5969C11.0154 49.7289 9.00424 47.137 8.07485 45.6432L7.85646 45.2895L8.06977 44.2971C8.38972 42.7874 8.5624 42.1065 8.81633 41.2989C9.04487 40.5757 9.04487 40.5493 9.01948 40.032C8.98901 39.4883 8.88235 38.9762 8.55224 37.8994C8.45575 37.5668 8.33894 37.097 8.29831 36.8542C8.25768 36.6114 8.18658 36.3369 8.14087 36.2419C8.06469 36.0888 8.04945 36.0835 8.01898 36.1786C7.99867 36.2366 7.99359 36.4636 8.00375 36.68C8.03422 37.134 7.96312 37.3979 7.3486 39.1346C7.15561 39.6836 6.95754 40.317 6.91691 40.5334C6.79502 41.1774 6.89152 41.7423 7.29273 42.7927C7.41462 43.1253 7.53651 43.5264 7.5619 43.6848C7.62285 44.0543 7.57206 44.598 7.48064 44.598C7.34352 44.598 6.10433 42.1118 5.63709 40.903C5.373 40.2167 5.36284 40.1851 5.42378 39.9581C5.5863 39.3141 6.52585 36.9334 6.98293 35.9832C7.40446 35.107 7.46033 34.9064 7.46033 34.2307C7.46033 33.6923 7.35368 32.0559 7.2775 31.4594C7.23687 31.1374 7.15053 31.2536 7.09974 31.697C7.04896 32.1087 6.83057 32.5627 6.19574 33.5815C5.69295 34.3891 5.42886 34.8958 5.24603 35.3868C5.09875 35.7985 5.09875 35.9516 5.25111 37.0759C5.34253 37.7622 5.36284 38.8073 5.28158 39.0185C5.22064 39.1821 5.09367 39.256 5.01749 39.1768C4.95147 39.1082 4.52486 37.6407 4.31664 36.7856C4.14904 36.0783 3.90526 34.7533 3.90526 34.5316C3.90526 34.3574 4.95655 32.7052 5.94181 31.3433C6.37349 30.7521 6.79502 30.1398 6.88136 29.9867C7.1099 29.5961 7.24195 29.0154 7.31305 28.155C7.34352 27.7486 7.40954 27.2418 7.46541 27.0307C7.56698 26.6295 7.59237 26.2811 7.51619 26.2811C7.44509 26.2811 7.37907 26.3972 7.31305 26.6506C7.19116 27.094 7.05911 27.2735 6.05354 28.345C5.49996 28.9362 4.97178 29.5222 4.88037 29.6436C4.5147 30.1292 4.31156 30.9157 4.31156 31.8448C4.31156 32.4835 4.24046 32.8952 4.07794 33.2595C3.72243 34.0354 3.6107 33.4442 3.56499 30.6043L3.53452 28.7304L3.73767 28.5192C4.03731 28.2078 4.96163 27.3263 5.78437 26.5714C7.53651 24.9667 7.73966 24.65 8.17134 22.85C8.25768 22.5069 8.40496 22.0529 8.50146 21.8365C8.68937 21.4353 8.74523 21.0922 8.60303 21.2136C8.56748 21.2453 8.4659 21.3983 8.37957 21.5514C8.1815 21.9262 7.86662 22.206 6.88644 22.8975C5.18509 24.0904 5.01241 24.3227 4.41313 26.0963C4.09317 27.0412 3.95605 27.3421 3.76814 27.4952C3.64625 27.5902 3.62086 27.5955 3.6107 27.5268C3.57007 27.3157 4.07794 24.0271 4.24553 23.4253C4.27093 23.3462 4.35726 23.2247 4.43852 23.1561C4.67214 22.9503 5.83008 22.1637 7.25718 21.24C7.96819 20.7755 8.63858 20.3162 8.74523 20.2212C9.03471 19.9467 9.23786 19.6247 9.68986 18.7485C10.2434 17.661 10.3044 17.5766 10.8478 17.091C11.1322 16.8376 11.3303 16.6159 11.3506 16.5367C11.4217 16.2516 11.2896 16.2939 10.6802 16.7584C10.218 17.1068 9.79144 17.3602 8.85696 17.8458C6.9677 18.8171 6.729 19.0335 6.01799 20.4059C5.57614 21.2558 5.28666 21.7203 5.06828 21.9368C4.87021 22.1268 4.61628 22.2218 4.61628 22.1004C4.61628 21.942 4.92607 20.881 5.18001 20.1737C5.51012 19.2446 6.277 17.4182 6.38873 17.2863C6.55125 17.0962 6.66298 17.0487 9.86762 15.8558C10.6193 15.576 11.2947 15.3068 11.3658 15.2593C11.7061 15.0376 11.9397 14.7895 12.5949 13.9713C13.3313 13.0528 13.4024 12.9842 14.1388 12.5355C14.5451 12.2874 14.5959 12.2346 14.6111 12.0868C14.6212 11.9971 14.6162 11.9232 14.5959 11.9232C14.5806 11.9232 14.4384 11.9918 14.2759 12.0762C13.6614 12.3982 12.7472 12.7308 11.7112 13.0053C10.4313 13.3484 9.8473 13.6123 9.40546 14.0452C9.2531 14.1983 8.86204 14.6469 8.54716 15.0376C8.23229 15.4335 7.88694 15.8294 7.78028 15.9191C7.52127 16.1355 7.19116 16.3044 7.02864 16.3044H6.90168L7.08451 15.9191C7.52127 15.0217 8.93822 12.8469 9.59845 12.0657L9.77112 11.8651L11.3709 11.6275C14.1743 11.2211 15.0479 11.0733 15.2662 10.973C15.5659 10.8358 15.8808 10.6088 16.5004 10.0756C17.2114 9.4633 17.577 9.19937 17.8919 9.08324C18.0341 9.03045 18.3287 8.9196 18.5471 8.84042C18.9178 8.70317 18.9381 8.68206 18.9381 8.53426C18.9381 8.41285 18.9178 8.38646 18.8518 8.40757C18.1611 8.624 17.379 8.75596 16.1194 8.85626C13.8798 9.04101 13.7579 9.08852 12.2851 10.3396C11.5233 10.9888 10.8529 11.295 10.5329 11.1419L10.4009 11.0786L10.5126 10.9097C10.8478 10.4293 12.5949 8.66623 13.7223 7.68439L14.0626 7.38351H14.8396C15.2612 7.38351 16.1398 7.42046 16.7797 7.46269C17.4247 7.50492 18.3744 7.55771 18.8975 7.57354C19.7862 7.6105 19.8624 7.60522 20.1925 7.49437C20.3855 7.43102 20.8375 7.20932 21.2032 7.00873C22.3408 6.37001 22.5795 6.26444 23.0772 6.19054C23.8492 6.06913 24.0625 6.01106 24.1183 5.90549C24.1488 5.8527 24.1691 5.79464 24.1691 5.7788C24.1691 5.75769 23.707 5.75241 23.1432 5.75241C22.2494 5.76297 21.9853 5.74185 21.1473 5.60989C20.5125 5.51487 19.9843 5.46208 19.5983 5.46208C19.0651 5.46208 18.9787 5.47792 18.5826 5.631C18.3439 5.72602 17.9224 5.93188 17.643 6.09552C16.6375 6.67089 16.4242 6.76063 15.9823 6.80814C15.6065 6.84509 15.1088 6.79758 15.0326 6.7184C14.9158 6.59172 17.1555 5.03979 18.3591 4.41163L18.6232 4.27439L19.2479 4.34829C20.2535 4.47498 21.1067 4.50665 21.5079 4.42747C22.3205 4.27439 22.9909 3.88905 23.8085 3.11308C24.6313 2.33184 24.9106 2.08902 25.2357 1.86732C25.7994 1.49254 25.9873 1.43447 26.8557 1.37113C27.2824 1.33945 27.648 1.30251 27.6633 1.28667C27.6785 1.27083 27.6429 1.19165 27.5871 1.11247C27.4703 0.948837 27.1402 0.853821 26.2209 0.716576C23.8695 0.362907 21.8533 0.764084 20.1824 1.92011C19.644 2.29489 19.1311 2.79108 18.6689 3.38757C18.1865 4.01045 18.1509 4.04213 17.5415 4.40107C17.2621 4.56999 16.6578 4.96061 16.1956 5.27205C15.7335 5.58349 15.3018 5.86326 15.2408 5.90021C15.124 5.96355 15.119 5.96355 15.1545 5.78936C15.251 5.34595 15.4541 5.0873 16.3785 4.27439C17.4348 3.35062 17.831 2.83331 18.3591 1.70896C18.6182 1.14943 18.7502 0.943558 19.06 0.57933C19.2733 0.33651 19.446 0.104248 19.446 0.0672989C19.446 -0.022438 19.3139 -0.022438 19.1159 0.0672989Z" fill="#D5AA6D"/>
<path d="M31.97 8.21226C31.8785 8.23865 31.8735 8.28616 31.909 9.29438C31.9242 9.87503 31.9242 10.6088 31.909 10.9255C31.8735 11.4956 31.8735 11.5009 31.7719 11.4111C31.7211 11.3583 31.4316 10.973 31.1371 10.5507C30.5378 9.69556 30.1721 9.2152 30.1061 9.18881C30.0553 9.16769 30.0451 16.3994 30.0959 16.959L30.1264 17.3232L30.7968 18.2523C31.8379 19.7039 31.8735 19.762 31.909 20.1579C31.9242 20.3479 31.9192 20.6963 31.8989 20.9391L31.8633 21.3772L31.3808 21.0024C30.4514 20.274 29.5779 19.9625 28.0543 19.8147C27.8867 19.7989 27.2112 19.762 26.5561 19.7356C24.5907 19.6458 23.7578 19.5402 22.61 19.2341C21.4216 18.9121 20.4515 18.437 19.9234 17.925C19.5323 17.5449 19.4206 17.3654 19.2225 16.7848L19.0651 16.3308L18.735 16.1566C18.4302 15.993 18.3744 15.9824 18.0138 15.9983C17.6786 16.0141 17.5973 16.0352 17.4094 16.1725C16.9625 16.4997 16.8203 17.1385 17.059 17.7244C17.191 18.0358 17.3282 18.1678 17.831 18.474C18.0239 18.5901 18.1712 18.7168 18.1611 18.7485C18.0239 19.118 15.4795 25.0037 13.9712 28.4453C12.4273 31.9768 11.6299 33.7662 10.9595 35.1862C10.6548 35.8354 10.4059 36.3844 10.4059 36.4161C10.4059 36.4953 11.4521 37.4402 11.9397 37.7991C13.3719 38.8548 14.9869 39.5147 16.8203 39.7997C17.7395 39.937 19.2174 39.937 20.1316 39.7997C22.4627 39.4408 24.5449 38.4114 26.1143 36.8437L26.5561 36.4003L26.3783 36.2366C26.2361 36.1047 26.0482 35.7246 25.4083 34.2519C24.9716 33.2489 23.4378 29.7333 22.0005 26.4394C19.0651 19.7303 18.7857 19.0757 18.7857 18.9913C18.7857 18.9543 18.8315 18.9438 18.9026 18.9649C19.0092 18.9913 20.0859 19.213 22.9502 19.7936C25.7334 20.3532 27.6125 20.9391 29.0802 21.7045C30.228 22.3063 31.198 23.1772 31.6449 24.0113L31.8887 24.46L31.8989 28.894C31.9141 33.7715 31.8836 49.1535 31.8582 49.1852C31.8531 49.1904 31.4875 49.0057 31.0507 48.7681C30.3702 48.3986 30.2584 48.3511 30.2889 48.4514C30.4057 48.8262 32.4474 53.387 32.5032 53.4028C32.5489 53.4134 32.6302 53.2867 32.7267 53.0597C32.8079 52.8644 33.1584 52.0567 33.5037 51.2755C34.2554 49.5811 34.7378 48.4356 34.7074 48.4092C34.6972 48.3986 34.3468 48.5676 33.9303 48.7893L33.1685 49.1852L33.133 48.3828C33.1127 47.9394 33.1076 42.3757 33.1177 36.0202L33.1381 24.46L33.2549 24.2224C34.1436 22.4593 36.1141 21.2664 39.6591 20.3479C40.2583 20.1895 41.3553 19.9414 42.0968 19.7936C43.3106 19.5455 45.855 19.0229 46.1496 18.9596L46.2664 18.9332L46.1648 19.1919C46.109 19.3397 45.2913 21.2347 44.3416 23.4095C43.3919 25.5843 42.0765 28.5984 41.4214 30.1081C38.8668 35.9727 38.7093 36.3105 38.5113 36.3105C38.3792 36.3105 38.4402 36.4003 38.8363 36.7962C41.7667 39.7047 46.2207 40.6918 50.1973 39.3035C51.6803 38.7915 53.1886 37.8519 54.2501 36.7909L54.6614 36.3739L54.4989 36.0677C53.7879 34.7269 50.5883 27.511 47.206 19.6036C46.7743 18.5848 46.7641 18.6957 47.2923 18.4053C47.4497 18.3156 47.663 18.152 47.7595 18.0411C48.0744 17.6769 48.1404 17.0487 47.922 16.5525C47.8154 16.3097 47.7595 16.2464 47.5259 16.1302C47.0688 15.8927 46.5 15.9455 46.1039 16.2675C45.9261 16.41 45.8753 16.4997 45.7788 16.8217C45.6062 17.3866 45.3675 17.7297 44.8799 18.1045C44.113 18.6957 43.1786 19.0757 41.787 19.3661C40.8525 19.5666 40.04 19.6564 38.2116 19.762C36.7845 19.8411 36.1954 19.8992 35.7231 20.0048C34.8699 20.1948 34.0827 20.5854 33.4072 21.1714L33.1685 21.3719L33.1381 21.2083C33.0822 20.8969 33.1025 19.952 33.1787 19.7725C33.2142 19.6775 33.6256 19.0757 34.0928 18.4265C34.6515 17.6399 34.9359 17.1965 34.941 17.1068C34.9664 16.5314 34.9562 9.17825 34.9257 9.17825C34.8699 9.17825 34.4585 9.70612 34.0471 10.3132C33.6002 10.9677 33.2244 11.4481 33.1533 11.4481C33.1279 11.4481 33.1076 10.8094 33.1076 9.90143C33.1076 9.02517 33.0873 8.32839 33.0568 8.28088C33.0212 8.22282 32.8943 8.2017 32.5388 8.19114C32.2798 8.18586 32.0207 8.19642 31.97 8.21226ZM32.7521 9.58471C32.7521 9.98589 32.7318 10.3396 32.7114 10.3712C32.6911 10.4029 32.5997 10.4399 32.5083 10.4557C32.361 10.4768 32.3305 10.461 32.2899 10.3554C32.2391 10.2076 32.229 8.95127 32.2798 8.89848C32.295 8.87737 32.4118 8.86153 32.5337 8.86153H32.7521V9.58471ZM34.4788 11.105C34.4788 11.3372 34.4483 11.5748 34.4077 11.6751C34.2706 11.9918 33.2955 13.2692 33.1736 13.285C33.0771 13.3009 33.0568 13.2798 33.0568 13.1478C33.0568 12.6727 33.1482 12.451 33.651 11.7437C34.2198 10.936 34.3874 10.7196 34.4433 10.7143C34.4636 10.7091 34.4788 10.8885 34.4788 11.105ZM30.8069 10.9572C30.8984 11.068 31.1878 11.4534 31.4418 11.8176L31.909 12.4774L31.9293 12.9103C31.9649 13.5965 31.8989 13.5543 31.0304 12.3454L30.5175 11.6328V11.1947C30.5175 10.6932 30.553 10.6668 30.8069 10.9572ZM34.4585 13.3748C34.4179 13.5437 33.2752 15.1115 33.1584 15.1537C33.0619 15.1906 33.0568 15.1695 33.0568 14.8317C33.0568 14.4833 33.0669 14.4622 33.3107 14.1085C34.0116 13.1003 34.2757 12.7361 34.362 12.6727C34.4483 12.6094 34.4534 12.6252 34.4687 12.9367C34.4788 13.1161 34.4737 13.3167 34.4585 13.3748ZM30.6749 12.7255C30.7866 12.8205 31.4265 13.6809 31.6856 14.0821C31.8785 14.3777 31.909 14.4675 31.9293 14.7842C31.97 15.3596 31.8684 15.2857 31.0761 14.1666L30.5175 13.3748V13.0158C30.5175 12.6569 30.5429 12.6094 30.6749 12.7255ZM30.9085 14.7578C31.2742 15.2223 31.8735 16.1197 31.9039 16.2622C31.9242 16.3361 31.9242 16.5103 31.909 16.6423L31.8735 16.8798L31.7313 16.8059C31.6551 16.7637 31.5332 16.6475 31.4672 16.5578C31.4011 16.4628 31.1624 16.1197 30.9339 15.7977L30.5175 15.2118V14.8053C30.5175 14.4252 30.5225 14.4041 30.614 14.4516C30.6647 14.4833 30.7968 14.6205 30.9085 14.7578ZM34.4788 14.8159V15.2276L33.9049 16.0088C33.5951 16.4417 33.2853 16.827 33.2193 16.8745L33.1076 16.9484V16.5684V16.183L33.5037 15.6235C33.7221 15.3173 33.9557 14.9795 34.0217 14.8792C34.169 14.6469 34.3823 14.4041 34.4382 14.4041C34.4585 14.4041 34.4788 14.5889 34.4788 14.8159ZM34.4737 16.6634C34.4534 17.0223 34.4331 17.1015 34.3112 17.2599C34.235 17.3602 34.0167 17.6663 33.8186 17.9461C33.6256 18.2259 33.392 18.5215 33.3006 18.6006L33.133 18.7485L33.0923 18.4898C33.072 18.3526 33.0619 18.1836 33.0771 18.1203C33.0923 18.0569 33.3514 17.661 33.6459 17.2493C34.2249 16.4311 34.3671 16.2516 34.4433 16.2516C34.4687 16.2516 34.4839 16.4311 34.4737 16.6634ZM30.7511 16.3994C30.8425 16.4786 31.6348 17.5871 31.8582 17.9514C31.9344 18.0675 31.9395 18.1572 31.9141 18.4423L31.8785 18.796L31.7059 18.6218C31.6094 18.5267 31.3047 18.1203 31.0253 17.7244L30.5175 16.9959V16.6528C30.5175 16.278 30.5581 16.2305 30.7511 16.3994ZM20.3144 23.4253C22.6557 28.704 25.8959 36.168 25.8959 36.2894C25.8959 36.3 22.544 36.3052 18.4455 36.3L10.99 36.2841L11.0052 36.1363C11.0205 35.9991 18.0493 19.8517 18.3439 19.2869C18.4099 19.1549 18.5369 19.4241 20.3144 23.4253ZM49.6996 26.1755C53.2597 34.3099 54.0825 36.2155 54.0469 36.2683C54.0368 36.2947 50.6798 36.3105 46.5864 36.3105C39.9485 36.3105 39.1512 36.3 39.1512 36.2313C39.1512 36.0994 39.2324 35.9093 42.8434 27.6535C44.7326 23.3409 46.3273 19.688 46.3934 19.535C46.4797 19.3291 46.5356 19.2552 46.6016 19.271C46.6575 19.2816 47.5869 21.3508 49.6996 26.1755Z" fill="#D5AA6D"/>
<path d="M76.7969 39V24.7227H79.8242V36.5H85.6152V39H76.7969ZM96.8457 39L95.8105 35.6016H90.6055L89.5703 39H86.3086L91.3477 24.6641H95.0488L100.107 39H96.8457ZM95.0879 33.0625L94.0527 29.7422C93.9876 29.5208 93.8997 29.2376 93.7891 28.8926C93.6849 28.541 93.5775 28.1862 93.4668 27.8281C93.3626 27.4635 93.278 27.1478 93.2129 26.8809C93.1478 27.1478 93.0566 27.4798 92.9395 27.877C92.8288 28.2676 92.7214 28.6387 92.6172 28.9902C92.513 29.3418 92.4382 29.5924 92.3926 29.7422L91.3672 33.0625H95.0879ZM119.453 24.7227L115.82 39H112.373L110.439 31.5C110.4 31.3568 110.348 31.1387 110.283 30.8457C110.218 30.5527 110.15 30.2337 110.078 29.8887C110.007 29.5371 109.941 29.2083 109.883 28.9023C109.831 28.5898 109.795 28.3424 109.775 28.1602C109.756 28.3424 109.717 28.5866 109.658 28.8926C109.606 29.1986 109.544 29.5241 109.473 29.8691C109.408 30.2142 109.342 30.5365 109.277 30.8359C109.212 31.1354 109.16 31.3633 109.121 31.5195L107.197 39H103.76L100.117 24.7227H103.096L104.922 32.5156C104.974 32.75 105.033 33.0299 105.098 33.3555C105.169 33.681 105.238 34.0228 105.303 34.3809C105.374 34.7324 105.436 35.0742 105.488 35.4062C105.547 35.7318 105.589 36.015 105.615 36.2559C105.648 36.0085 105.69 35.722 105.742 35.3965C105.794 35.0645 105.85 34.7292 105.908 34.3906C105.973 34.0456 106.038 33.7266 106.104 33.4336C106.169 33.1406 106.227 32.903 106.279 32.7207L108.359 24.7227H111.221L113.301 32.7207C113.346 32.8965 113.398 33.1341 113.457 33.4336C113.522 33.7266 113.587 34.0456 113.652 34.3906C113.717 34.7357 113.776 35.0742 113.828 35.4062C113.887 35.7318 113.929 36.015 113.955 36.2559C114.001 35.9303 114.062 35.5365 114.141 35.0742C114.225 34.6055 114.313 34.14 114.404 33.6777C114.502 33.2155 114.587 32.8281 114.658 32.5156L116.475 24.7227H119.453ZM125.654 24.5176C126.423 24.5176 127.106 24.638 127.705 24.8789C128.304 25.1198 128.776 25.4714 129.121 25.9336C129.473 26.3958 129.648 26.959 129.648 27.623C129.648 28.541 129.375 29.3125 128.828 29.9375C128.288 30.5625 127.611 31.1094 126.797 31.5781L129.57 34.2832C129.844 33.834 130.075 33.3587 130.264 32.8574C130.459 32.3561 130.628 31.8516 130.771 31.3438H133.877C133.675 32.0924 133.379 32.8932 132.988 33.7461C132.604 34.5924 132.113 35.39 131.514 36.1387L134.453 39H130.771L129.648 37.8965C129.264 38.1634 128.851 38.3945 128.408 38.5898C127.972 38.7852 127.503 38.9349 127.002 39.0391C126.507 39.1432 125.983 39.1953 125.43 39.1953C124.349 39.1953 123.421 39.026 122.646 38.6875C121.872 38.349 121.279 37.877 120.869 37.2715C120.459 36.6595 120.254 35.9499 120.254 35.1426C120.254 34.4655 120.358 33.8861 120.566 33.4043C120.775 32.916 121.074 32.4896 121.465 32.125C121.855 31.7539 122.324 31.4121 122.871 31.0996C122.526 30.696 122.249 30.3184 122.041 29.9668C121.839 29.6152 121.693 29.2669 121.602 28.9219C121.517 28.5703 121.475 28.2025 121.475 27.8184C121.475 27.1413 121.65 26.5586 122.002 26.0703C122.36 25.5755 122.852 25.1947 123.477 24.9277C124.108 24.6543 124.834 24.5176 125.654 24.5176ZM124.609 32.877C124.362 33.0658 124.144 33.2611 123.955 33.4629C123.773 33.6647 123.633 33.8796 123.535 34.1074C123.438 34.3353 123.389 34.5859 123.389 34.8594C123.389 35.4323 123.604 35.8815 124.033 36.207C124.463 36.5326 124.997 36.6953 125.635 36.6953C126.064 36.6953 126.465 36.6432 126.836 36.5391C127.207 36.4349 127.546 36.2884 127.852 36.0996L124.609 32.877ZM125.635 26.8223C125.303 26.8223 124.984 26.9069 124.678 27.0762C124.378 27.2454 124.229 27.5612 124.229 28.0234C124.229 28.349 124.313 28.668 124.482 28.9805C124.652 29.2865 124.876 29.599 125.156 29.918C125.716 29.612 126.146 29.306 126.445 29C126.745 28.6875 126.895 28.3327 126.895 27.9355C126.895 27.5384 126.758 27.2552 126.484 27.0859C126.217 26.9102 125.934 26.8223 125.635 26.8223ZM148.096 31.7246C148.096 33.3327 147.786 34.6771 147.168 35.7578C146.556 36.832 145.667 37.6426 144.502 38.1895C143.337 38.7298 141.934 39 140.293 39H136.25V24.7227H140.732C142.23 24.7227 143.529 24.9896 144.629 25.5234C145.729 26.0508 146.582 26.8353 147.188 27.877C147.793 28.9121 148.096 30.1947 148.096 31.7246ZM144.951 31.8027C144.951 30.748 144.795 29.8822 144.482 29.2051C144.176 28.5215 143.721 28.0169 143.115 27.6914C142.516 27.3659 141.774 27.2031 140.889 27.2031H139.277V36.5H140.576C142.054 36.5 143.151 36.1061 143.867 35.3184C144.59 34.5306 144.951 33.3587 144.951 31.8027Z" fill="#D5AA6D"/>
</svg>
