<svg width="90" height="70" viewBox="0 0 90 70" fill="none" xmlns="http://www.w3.org/2000/svg">
<path d="M61.3636 13.3C59.1429 13.3 57.2727 15.1667 57.2727 17.3833V52.5C57.2727 54.7167 59.1429 56.5833 61.3636 56.5833C63.5844 56.5833 65.4546 54.7167 65.4546 52.5V17.3833C65.4546 15.1667 63.5844 13.3 61.3636 13.3ZM63.1169 52.5C63.1169 53.2 62.5325 54.1333 61.3636 54.1333C60.1948 54.1333 59.6104 53.2 59.6104 52.5V17.3833C59.6104 16.6833 59.961 15.6333 61.3636 15.6333C62.6494 15.6333 63.1169 16.6833 63.1169 17.3833V52.5Z" fill="#D5AA6D"/>
<path d="M47.3377 13.3C45.1169 13.3 43.2468 15.1667 43.2468 17.3833V52.5C43.2468 54.7167 45.1169 56.5833 47.3377 56.5833C49.5585 56.5833 51.4286 54.7167 51.4286 52.5V17.3833C51.4286 15.1667 49.5585 13.3 47.3377 13.3ZM49.0909 52.5C49.0909 53.2 48.6234 54.1333 47.4546 54.1333C46.052 54.1333 45.5844 53.2 45.5844 52.5V17.3833C45.5844 16.6833 46.1688 15.6333 47.3377 15.6333C48.6234 15.6333 49.0909 16.6833 49.0909 17.3833V52.5Z" fill="#D5AA6D"/>
<path d="M20.4546 13.3C18.2338 13.3 16.3636 15.1667 16.3636 17.3833V52.5C16.3636 54.7167 18.2338 56.5833 20.4546 56.5833C22.6753 56.5833 24.5455 54.7167 24.5455 52.5V17.3833C24.5455 15.1667 22.6753 13.3 20.4546 13.3ZM22.2078 52.5C22.2078 53.2 21.6234 54.1333 20.4546 54.1333C19.2857 54.1333 18.7013 53.2 18.7013 52.5V17.3833C18.7013 16.6833 19.4026 15.6333 20.4546 15.6333C21.7403 15.6333 22.2078 16.6833 22.2078 17.3833V52.5Z" fill="#D5AA6D"/>
<path d="M34.4805 13.3C32.2597 13.3 30.3896 15.1667 30.3896 17.3833V52.5C30.3896 54.7167 32.2597 56.5833 34.4805 56.5833C36.7013 56.5833 38.5714 54.7167 38.5714 52.5V17.3833C38.5714 15.1667 36.7013 13.3 34.4805 13.3ZM36.2338 52.5C36.2338 53.2 35.5325 54.1333 34.4805 54.1333C33.5455 54.1333 32.7273 53.2 32.7273 52.5V17.3833C32.7273 16.6833 33.3117 15.6333 34.3636 15.6333C35.6494 15.6333 36.2338 16.6833 36.2338 17.3833V52.5Z" fill="#D5AA6D"/>
<path d="M81.8182 17.3833C83.6883 17.3833 85.3247 15.8667 85.3247 14V9.91667C85.3247 8.05 83.6883 6.53333 81.8182 6.53333C79.948 6.53333 78.3117 8.05 78.3117 9.91667V10.5H77.1429V7H73.6364V5.25C73.6364 2.33333 71.4156 0 68.3766 0C65.3377 0 63.1169 2.33333 63.1169 5.25V6.53333C63.1169 7.58333 62.0649 8.16667 61.3636 8.16667C60.6623 8.16667 59.6104 7.7 59.6104 6.53333V5.25C59.6104 2.33333 57.2727 0 54.2338 0C51.1948 0 49.0909 2.33333 49.0909 5.25V6.53333C49.0909 7.93333 48.1558 8.28333 47.4545 8.28333C46.7532 8.28333 45.5844 7.7 45.5844 6.53333V5.25C45.5844 2.33333 43.948 0 40.9091 0C37.8701 0 36.2338 2.33333 36.2338 5.25V6.53333C36.2338 7.7 35.1818 8.28333 34.4805 8.28333C33.7792 8.28333 32.7273 7.7 32.7273 6.53333V5.25C32.7273 2.33333 30.6234 0 27.5844 0C24.5455 0 22.2078 2.33333 22.2078 5.25V6.53333C22.2078 8.05 21.2727 8.28333 20.5714 8.28333C19.8701 8.28333 18.7013 7.7 18.7013 6.53333V5.25C18.7013 2.33333 16.3636 0 13.3247 0C10.2857 0 8.18182 2.33333 8.18182 5.25V8.16667H4.67532V17.5H8.18182V52.5H4.67532V61.8333H8.18182V64.6333C8.18182 67.55 10.4026 70 13.4416 70C16.3636 70 18.7013 67.6667 18.7013 64.6333V63.35C18.7013 62.1833 19.7532 61.8333 20.4545 61.8333C21.1558 61.8333 22.2078 62.3 22.2078 63.35V64.6333C22.2078 67.55 24.4286 70 27.4675 70C30.3896 70 32.7273 67.6667 32.7273 64.6333V63.35C32.7273 62.65 33.1948 61.8333 34.3636 61.8333C35.8831 61.8333 36.2338 62.65 36.2338 63.35V64.6333C36.2338 67.55 37.8701 70 40.9091 70C43.8312 70 45.5844 67.6667 45.5844 64.6333V63.35C45.5844 62.1833 46.7532 61.8333 47.4545 61.8333C48.6234 61.8333 49.0909 62.65 49.0909 63.35V64.6333C49.0909 67.55 51.3117 70 54.3506 70C57.2727 70 59.6104 67.6667 59.6104 64.6333V63.35C59.6104 62.65 60.3117 61.8333 61.3636 61.8333C62.2987 61.8333 63.1169 62.65 63.1169 63.35V64.6333C63.1169 67.55 65.3377 70 68.3766 70C71.2987 70 73.6364 67.6667 73.6364 64.6333V61.8333H77.1429V60.6667H85.3247V53.6667H77.1429V52.5H73.6364V17.5H77.1429V12.8333H78.3117V14C78.3117 15.8667 79.948 17.3833 81.8182 17.3833ZM81.8182 9.91667C81.8182 9.56667 82.0519 9.33333 82.4026 9.33333C82.7532 9.33333 82.987 9.56667 82.987 9.91667V14C82.987 14.35 82.7532 14.7 82.4026 14.7C82.0519 14.7 81.8182 14.35 81.8182 14V9.91667ZM8.18182 59.5H7.01299V54.8333H8.18182V59.5ZM8.18182 15.1667H7.01299V10.5H8.18182V15.1667ZM71.2987 52.5V64.6333C71.2987 66.15 69.7792 67.6667 68.2597 67.6667C66.7403 67.6667 65.4545 66.15 65.4545 64.6333V63.35C65.4545 61.1333 63.5844 59.5 61.3636 59.5C59.1429 59.5 57.2727 61.0167 57.2727 63.35V64.6333C57.2727 66.15 55.8701 67.6667 54.3506 67.6667C52.8312 67.6667 51.4286 66.15 51.4286 64.6333V63.35C51.4286 61.1333 49.4416 59.5 47.2208 59.5C45 59.5 43.2468 61.0167 43.2468 63.35V64.6333C43.2468 66.15 42.4286 67.6667 40.9091 67.6667C39.3896 67.6667 38.5714 66.15 38.5714 64.6333V63.35C38.5714 61.1333 36.7013 59.5 34.4805 59.5C32.2597 59.5 30.3896 61.0167 30.3896 63.35V64.6333C30.3896 66.15 28.987 67.6667 27.4675 67.6667C25.948 67.6667 24.5455 66.15 24.5455 64.6333V63.35C24.5455 61.1333 22.6753 59.5 20.4545 59.5C18.2338 59.5 16.3636 61.0167 16.3636 63.35V64.6333C16.3636 66.15 14.8442 67.6667 13.3247 67.6667C11.8052 67.6667 10.5195 66.15 10.5195 64.6333V5.25C10.5195 3.73333 11.9221 2.56667 13.4416 2.56667C14.961 2.56667 16.3636 3.73333 16.3636 5.25V6.53333C16.3636 8.75 18.2338 10.3833 20.4545 10.3833C22.6753 10.3833 24.5455 8.86667 24.5455 6.53333V5.25C24.5455 3.73333 25.948 2.56667 27.4675 2.56667C28.987 2.56667 30.3896 3.73333 30.3896 5.25V6.53333C30.3896 8.75 32.2597 10.3833 34.4805 10.3833C36.7013 10.3833 38.5714 8.86667 38.5714 6.53333V5.25C38.5714 3.73333 39.3896 2.56667 40.9091 2.56667C42.4286 2.56667 43.2468 3.73333 43.2468 5.25V6.53333C43.2468 8.75 45.3506 10.3833 47.5714 10.3833C49.7922 10.3833 51.4286 8.86667 51.4286 6.53333V5.25C51.4286 3.73333 52.8312 2.56667 54.3506 2.56667C55.8701 2.56667 57.2727 3.73333 57.2727 5.25V6.53333C57.2727 8.75 59.1429 10.3833 61.3636 10.3833C63.5844 10.3833 65.4545 8.86667 65.4545 6.53333V5.25C65.4545 3.73333 66.8571 2.1 68.3766 2.1C69.8961 2.1 71.2987 3.73333 71.2987 5.25V52.5ZM77.1429 56H82.987V58.3333H77.1429V56ZM74.8052 54.8333V59.5H73.6364V54.8333H74.8052ZM74.8052 15.1667H73.6364V9.33333H74.8052V15.1667Z" fill="#D5AA6D"/>
<path d="M88.8312 14.8167C88.8312 17.6167 86.6104 19.8333 83.8052 19.8333H83.3377C80.5325 19.8333 78.3117 17.6167 78.3117 14.8167V8.51667C78.3117 5.71667 80.5325 3.5 83.3377 3.5H83.8052C86.6104 3.5 88.8312 5.71667 88.8312 8.51667V14.8167Z" fill="#D5AA6D"/>
</svg>
