<svg width="80" height="80" viewBox="0 0 80 80" fill="none" xmlns="http://www.w3.org/2000/svg">
<path d="M37.1731 69.2518V79.0219M44.0974 69.2518V79.0219" stroke="#D5AA6D" stroke-width="1.84" stroke-miterlimit="10" stroke-linecap="round"/>
<path d="M14.9709 21.2306C18.8711 21.2306 22.0328 18.0558 22.0328 14.1396C22.0328 10.2233 18.8711 7.04852 14.9709 7.04852C11.0707 7.04852 7.90895 10.2233 7.90895 14.1396C7.90895 18.0558 11.0707 21.2306 14.9709 21.2306Z" stroke="#D5AA6D" stroke-width="1.84" stroke-miterlimit="10" stroke-linecap="round"/>
<path d="M65.442 17.095C69.8744 17.095 73.4674 13.4871 73.4674 9.03656C73.4674 4.58599 69.8744 0.978088 65.442 0.978088C61.0097 0.978088 57.4166 4.58599 57.4166 9.03656C57.4166 13.4871 61.0097 17.095 65.442 17.095Z" stroke="#D5AA6D" stroke-width="1.84" stroke-miterlimit="10" stroke-linecap="round"/>
<path d="M40.6353 52.901C43.3894 52.901 45.622 50.6591 45.622 47.8937C45.622 45.1282 43.3894 42.8864 40.6353 42.8864C37.8811 42.8864 35.6485 45.1282 35.6485 47.8937C35.6485 50.6591 37.8811 52.901 40.6353 52.901Z" stroke="#D5AA6D" stroke-width="1.84" stroke-miterlimit="10" stroke-linecap="round"/>
<path d="M4.55267 49.1907L0.984653 38.5595L5.2197 25.4193C7.14664 22.9422 10.7887 21.2731 14.9603 21.2731C16.7347 21.2115 18.502 21.5293 20.1448 22.2057C21.7877 22.882 23.2685 23.9013 24.4891 25.196L32.3452 49.1907C32.3452 49.1907 26.9243 51.721 24.9338 50.1263M51.8476 45.9589V21.39C54.558 18.913 59.6824 17.2439 65.5585 17.2439C71.2546 17.2439 76.2519 18.8173 79.0153 21.1668V46.9901C79.0153 46.9901 79.1742 51.9974 73.3722 51.9974" stroke="#D5AA6D" stroke-width="1.84" stroke-miterlimit="10" stroke-linecap="round"/>
<path d="M8.3748 30.703L2.2234 63.798H27.496L21.3235 30.6179M29.7618 50.1475L34.7062 56.4305H46.5537L51.2229 50.1475M18.4648 79.0219H11.6464L9.84648 67.6571H20.2647L18.4648 79.0219Z" stroke="#D5AA6D" stroke-width="1.84" stroke-miterlimit="10" stroke-linecap="round"/>
<path d="M45.6961 55.5269H35.5638C35.0902 55.5269 34.7062 55.9125 34.7062 56.388V67.4871C34.7062 67.9626 35.0902 68.3482 35.5638 68.3482H45.6961C46.1698 68.3482 46.5537 67.9626 46.5537 67.4871V56.388C46.5537 55.9125 46.1698 55.5269 45.6961 55.5269Z" fill="#D5AA6D" stroke="#D5AA6D" stroke-width="1.98" stroke-miterlimit="10"/>
<path d="M73.3722 29.0445V79.0219H57.226V29.0445M65.3044 79.0219V55.1654" stroke="#D5AA6D" stroke-width="1.84" stroke-miterlimit="10" stroke-linecap="round"/>
<path d="M44.3621 56.3243H36.8978C36.1026 56.3243 35.4579 56.9716 35.4579 57.7701V65.8818C35.4579 66.6803 36.1026 67.3276 36.8978 67.3276H44.3621C45.1573 67.3276 45.802 66.6803 45.802 65.8818V57.7701C45.802 56.9716 45.1573 56.3243 44.3621 56.3243Z" fill="#D5AA6D"/>
</svg>
