<svg width="80" height="80" viewBox="0 0 80 80" fill="none" xmlns="http://www.w3.org/2000/svg">
<path d="M39.9688 40.5937V32.2813H33.7344V53.25C34.9375 53.6719 35.8125 54.8281 35.8125 56.1719C35.8125 57.5312 34.9375 58.6719 33.7344 59.0938V61.3594H46.2031V59.0938C45 58.6719 44.125 57.5156 44.125 56.1719C44.125 54.8125 45 53.6719 46.2031 53.25V30.2031H44.4219L39.9688 40.5937Z" fill="#D5AA6D"/>
<path d="M26.4687 60.3281V62.4062H14V59.4844C14.9063 60.0156 15.9688 60.3281 17.0938 60.3281H26.4687Z" fill="#D5AA6D"/>
<path d="M70.7969 33.5938C71.6875 34.4844 72.1719 35.6719 72.1719 36.9219C72.1719 39.25 70.4531 41.1875 68.2344 41.5469C68.7656 42.8906 69.0625 44.3281 69.0625 45.7812V54.1094C69.0625 55.375 68.6719 56.5625 68.0156 57.5469V72.7969H51.3906V60.3281H47.2344V61.6094L42.3906 71.2813C41.9219 72.2031 41 72.7812 39.9531 72.7812C38.9063 72.7812 37.9844 72.2031 37.5156 71.2813L32.6719 61.6094V60.3281H28.5156V72.7969H11.9219V57.5469C11.2656 56.5625 10.8906 55.375 10.8906 54.1094V45.7812C10.8906 42.3594 12.4688 39.0781 15.125 36.9375L15.2656 36.0469L10.875 32.3125C8.89062 30.625 7.76562 28.1563 7.76562 25.5625V25.1406C7.76562 22.1406 8.84375 19.2344 10.7969 16.9531C13.1875 14.1719 16.6719 12.5625 20.3438 12.5625H27.5C28.6406 12.5625 29.5781 13.5 29.5781 14.6406V16.7188C29.5781 18.2031 29.0469 19.5781 28.1875 20.6406C29.1406 22.3906 30.625 25.8281 30.625 30.2187V31.25H28.5469C28.5469 34.3281 26.2969 36.9063 23.3594 37.3906V39.2344C24.3281 40.0156 25.1719 40.9375 25.875 41.9844C26.9219 43.5625 27.6094 45.375 27.8438 47.25L28.4375 52.0312H32.7187V32.2813L33.8281 18.9844L44.3281 16.3594L43.25 25H47.2656V52H51.5469L52.1406 47.2188C52.375 45.3438 53.0469 43.5313 54.0938 41.9531C54.7969 40.9063 55.6406 39.9844 56.6094 39.2031V37.3594C53.6719 36.8594 51.4219 34.2969 51.4219 31.2188H49.3437V30.1719C49.3437 28.3906 49.5781 26.5625 50.0312 24.7187C48.4219 24.1406 47.2656 22.625 47.2656 20.8125C47.2656 16.2344 51 12.5 55.5781 12.5H59.7344C65.4687 12.5 70.125 17.1562 70.125 22.8906V32.8437L70.7969 33.5938ZM70.0937 36.9219C70.0937 36.2188 69.8125 35.5625 69.3281 35.0625L68.0156 33.75V22.9375C68.0156 18.3594 64.2812 14.625 59.7031 14.625H55.5469C52.1094 14.625 49.3125 17.4219 49.3125 20.8594C49.3125 22 50.25 22.9375 51.3906 22.9375H59.9062C60.9375 22.9375 61.7812 22.0938 61.7812 21.0625C61.7812 20.2031 61.2031 19.4531 60.3594 19.2344L58.4062 18.75L58.9062 16.7344L60.8594 17.2187C62.625 17.6562 63.8594 19.2344 63.8594 21.0625C63.8594 21.7813 63.6719 22.4375 63.3437 23.0156C63.6875 23.9219 63.8594 24.8906 63.8594 25.875V35.9687C63.8594 37.9531 65.4688 39.5625 67.4531 39.5625C68.9063 39.5469 70.0937 38.375 70.0937 36.9219ZM66.9687 54.1094V52.0156H62.8125V54.0938H47.2344C46.0937 54.0938 45.1563 55.0312 45.1563 56.1719C45.1563 57.3125 46.0937 58.25 47.2344 58.25H62.8438C65.125 58.25 66.9687 56.3906 66.9687 54.1094ZM66.9687 49.9375V45.7812C66.9687 44.25 66.5781 42.75 65.8594 41.3906C64.4375 40.9687 63.2344 40.0156 62.5156 38.75C59.7812 39.2188 57.3281 40.8125 55.7969 43.125C54.9219 44.4375 54.3594 45.9375 54.1719 47.5L53.6094 52.0156H60.75V45.7812H62.8281V49.9375H66.9687ZM65.9375 70.7188V64.4844H53.4688V70.7188H65.9375ZM65.9375 62.4062V59.4844C65.0156 60.0156 63.9687 60.3281 62.8438 60.3281H53.4844V62.4062H65.9375ZM61.8437 36.7812C61.7969 36.5156 61.7812 36.2344 61.7812 35.9687V25.875C61.7812 25.4375 61.7344 25.0156 61.6406 24.6094C61.1094 24.875 60.5156 25.0156 59.8906 25.0156H52.0625C51.7031 26.4219 51.4844 27.8125 51.4062 29.1719H53.4531V31.25C53.4531 31.6094 53.5156 31.9531 53.5937 32.2813H54.2344C55.2656 32.2813 56.2031 31.7031 56.6719 30.7812L58.5312 31.7031C57.7969 33.1562 56.4219 34.125 54.8281 34.3125C55.5625 34.9844 56.5312 35.3906 57.5937 35.3906H58.625V37.875C59.6719 37.3594 60.7344 37 61.8437 36.7812ZM45.1563 61.125V59.75C43.9219 59.0312 43.0781 57.7031 43.0781 56.1719C43.0781 54.6406 43.9219 53.3125 45.1563 52.5938V31.1094L41 40.7969V61.3594H38.9219V45.6563V40.5937V33.3281H34.7656V52.6094C36 53.3281 36.8438 54.6563 36.8438 56.1875C36.8438 57.7188 36 59.0469 34.7656 59.7656V61.1406L37.5 66.5625H42.4531L45.1563 61.125ZM41.0156 35.5312L44.625 27.0937H40.875L41.875 19.125L35.75 20.6562L34.8594 31.25H41V35.5312H41.0156ZM40.5469 70.3594L41.4063 68.6406H38.5313L39.3906 70.3594C39.6094 70.7969 40.3281 70.7969 40.5469 70.3594ZM32.7031 58.25C33.8438 58.25 34.7813 57.3125 34.7813 56.1719C34.7813 55.0312 33.8438 54.0938 32.7031 54.0938H30.625V58.25H32.7031ZM28.5469 58.25V54.0938H17.125V45.7812H19.2031V52.0156H26.3281L25.7656 47.5C25.5781 45.9375 25.0156 44.4375 24.1406 43.125C23.875 42.7344 23.5938 42.375 23.2813 42.0312L21.625 45.3438L15.0781 39.8906C13.7344 41.5469 12.9687 43.625 12.9687 45.7812V54.1094C12.9687 56.3906 14.8281 58.25 17.1094 58.25H28.5469ZM26.4687 29.1719H28.5156C28.3281 26.0156 27.3281 23.5156 26.5781 22.0312C25.6406 22.6094 24.5313 22.9375 23.3594 22.9375H20.3594C20.0781 22.9375 19.7969 22.8906 19.5469 22.8281L17.8438 27.0937H17.1406C16.5625 27.0937 16.1094 27.5625 16.1094 28.1406C16.1094 28.5313 16.2656 28.9062 16.5469 29.1719L18.2656 30.8906L17.3125 36.625L17.7344 36.6875C18.9844 36.8906 20.1875 37.2969 21.3125 37.875V35.3906H22.3594C23.4219 35.3906 24.3906 34.9688 25.125 34.3125C23.5469 34.125 22.1563 33.1562 21.4219 31.7031L23.2813 30.7812C23.75 31.7031 24.6719 32.2813 25.7188 32.2813H26.3594C26.4531 31.9531 26.5 31.6094 26.5 31.25V29.1719H26.4687ZM27.5 16.7031V14.625H20.3438C17.2812 14.625 14.375 15.9687 12.375 18.2812C10.75 20.1875 9.84375 22.625 9.84375 25.125V25.5469C9.84375 27.5469 10.7187 29.4219 12.2187 30.7188L15.6562 33.6406L16 31.5937L15.0312 30.625C14.3594 29.9531 14 29.0625 14 28.125C14 26.6563 15.0156 25.4219 16.375 25.0938L17.7344 21.6875C17.5312 21.4219 17.3594 21.1094 17.25 20.7812C16.9531 19.7969 17.125 18.7812 17.7188 17.9688C18.3125 17.1719 19.25 16.7031 20.2187 16.7031H21.25V18.7812H20.2187C19.8906 18.7812 19.5781 18.9375 19.375 19.2031C19.25 19.3594 19.0781 19.7031 19.2188 20.1719C19.3438 20.5781 19.7969 20.8594 20.3125 20.8594H23.3125C25.6406 20.8594 27.5 19 27.5 16.7031ZM26.4687 70.7188V64.4844H14V70.7188H22.3125V69.0625C22.3125 67.8437 22.7969 66.6875 23.6562 65.8125L25.125 67.2813C24.6563 67.75 24.3906 68.3906 24.3906 69.0625V70.7031H26.4687V70.7188ZM26.4687 62.4062V60.3281H17.1094C15.9844 60.3281 14.9219 60.0156 14.0156 59.4844V62.4062H26.4687ZM20.9375 42.0781L21.6875 40.5781C20.4219 39.6563 18.9375 39 17.375 38.75L16.8438 38.6562L20.9375 42.0781Z" fill="black"/>
<path d="M69.3281 35.0625C69.8281 35.5625 70.0938 36.2188 70.0938 36.9219C70.0938 38.375 68.9063 39.5625 67.4531 39.5625C65.4688 39.5625 63.8594 37.9531 63.8594 35.9688V25.875C63.8594 24.8906 63.6875 23.9375 63.3437 23.0156C63.6719 22.4375 63.8594 21.7656 63.8594 21.0625C63.8594 19.25 62.625 17.6719 60.8594 17.2187L58.9062 16.7344L58.4062 18.75L60.3594 19.2344C61.2031 19.4375 61.7812 20.1875 61.7812 21.0625C61.7812 22.0938 60.9375 22.9375 59.9062 22.9375H51.3906C50.25 22.9375 49.3125 22 49.3125 20.8594C49.3125 17.4219 52.1094 14.625 55.5469 14.625H59.7031C64.2812 14.625 68.0156 18.3594 68.0156 22.9375V33.75L69.3281 35.0625Z" fill="#D5AA6D"/>
<path d="M66.9688 52.0156V54.1094C66.9688 56.3906 65.1094 58.25 62.8281 58.25H47.2188C46.0781 58.25 45.1406 57.3125 45.1406 56.1719C45.1406 55.0313 46.0781 54.0938 47.2188 54.0938H62.7969V52.0156H66.9688V52.0156Z" fill="#D5AA6D"/>
<path d="M66.9688 45.7812V49.9375H62.8125V45.7812H60.7344V52.0156H53.5938L54.1563 47.5C54.3438 45.9375 54.9063 44.4375 55.7812 43.125C57.3281 40.8125 59.7656 39.2344 62.5 38.75C63.2187 40.0156 64.4219 40.9687 65.8437 41.3906C66.5781 42.75 66.9688 44.25 66.9688 45.7812Z" fill="#D5AA6D"/>
<path d="M65.9375 64.4844H53.4688V70.7187H65.9375V64.4844Z" fill="#D5AA6D"/>
<path d="M65.9375 59.4844V62.4062H53.4688V60.3281H62.8281C63.9687 60.3281 65.0312 60.0156 65.9375 59.4844Z" fill="#D5AA6D"/>
<path d="M61.7812 35.9531C61.7812 36.2344 61.8125 36.5 61.8437 36.7656C60.7344 36.9844 59.6562 37.3594 58.6562 37.875V35.3906H57.625C56.5625 35.3906 55.5937 34.9688 54.8594 34.3125C56.4375 34.1094 57.8281 33.1562 58.5625 31.7031L56.7031 30.7812C56.2344 31.7031 55.3125 32.2813 54.2656 32.2813H53.625C53.5312 31.9531 53.4844 31.6094 53.4844 31.25V29.1719H51.4375C51.5156 27.8125 51.7344 26.4219 52.0937 25.0156H59.9219C60.5469 25.0156 61.1406 24.875 61.6719 24.6094C61.7656 25.0156 61.8125 25.4531 61.8125 25.875V35.9531H61.7812Z" fill="#D5AA6D"/>
<path d="M48.6875 11.5156L47.1875 15.9844L45.2187 15.3281L45.7969 13.5781H43.375L42.6406 11.3594L39.9687 14.0156L37.4219 11.4688L36.5781 14.8437L33.0938 13.9688L33.7031 16.4531L31.6875 16.9531L30.2344 11.125L35.0625 12.3281L36.2969 7.40625L39.9687 11.0781L43.5469 7.5L44.875 11.5156H48.6875Z" fill="black"/>
<path d="M41.4062 68.6406L40.5469 70.3594C40.3281 70.7969 39.625 70.7969 39.3906 70.3594L38.5312 68.6406H41.4062Z" fill="#D5AA6D"/>
<path d="M34.7813 56.1719C34.7813 57.3125 33.8594 58.25 32.7031 58.25H30.625V54.0938H32.7031C33.8438 54.0938 34.7813 55.0312 34.7813 56.1719Z" fill="#D5AA6D"/>
<path d="M28.5469 54.0938V58.25H17.0938C14.8125 58.25 12.9531 56.3906 12.9531 54.1094V45.7812C12.9531 43.625 13.7187 41.5469 15.0625 39.8906L21.6094 45.3438L23.2812 42.0312C23.5937 42.375 23.8906 42.7344 24.1406 43.125C25.0156 44.4375 25.5781 45.9375 25.7656 47.5L26.3281 52.0156H19.2031V45.7812H17.125V54.0938H28.5469Z" fill="#D5AA6D"/>
<path d="M28.5156 29.1719H26.4687V31.25C26.4687 31.6094 26.4062 31.9531 26.3281 32.2813H25.6875C24.6562 32.2813 23.7188 31.7031 23.25 30.7812L21.3906 31.7031C22.125 33.1562 23.5 34.125 25.0938 34.3125C24.3594 34.9844 23.3906 35.3906 22.3281 35.3906H21.2812V37.875C20.1719 37.2969 18.9688 36.8906 17.7031 36.6875L17.2812 36.625L18.2344 30.8906L16.5156 29.1719C16.2344 28.8906 16.0781 28.5313 16.0781 28.1406C16.0781 27.5625 16.5469 27.0937 17.1094 27.0937H17.8125L19.5156 22.8281C19.7813 22.8906 20.0469 22.9375 20.3281 22.9375H23.3281C24.5 22.9375 25.6094 22.6094 26.5469 22.0312C27.3281 23.5156 28.3281 26.0156 28.5156 29.1719Z" fill="#D5AA6D"/>
<path d="M27.5 14.625V16.7031C27.5 19 25.6406 20.8594 23.3437 20.8594H20.3438C19.8281 20.8594 19.375 20.5781 19.25 20.1719C19.1094 19.7031 19.2812 19.3594 19.4062 19.2031C19.6094 18.9375 19.9063 18.7812 20.25 18.7812H21.2812V16.7031H20.25C19.2656 16.7031 18.3281 17.1719 17.75 17.9688C17.1562 18.7656 16.9844 19.7969 17.2812 20.7813C17.3906 21.1094 17.5469 21.4219 17.7656 21.6875L16.4062 25.0938C15.0469 25.4219 14.0313 26.6563 14.0313 28.125C14.0313 29.0781 14.4063 29.9688 15.0625 30.625L16.0312 31.5937L15.6875 33.6406L12.25 30.7188C10.7344 29.4219 9.875 27.5313 9.875 25.5469V25.125C9.875 22.6094 10.7813 20.1875 12.4063 18.2813C14.4063 15.9531 17.2969 14.625 20.375 14.625H27.5V14.625Z" fill="#D5AA6D"/>
<path d="M26.4687 64.4844V70.7188H24.3906V69.0625C24.3906 68.3906 24.6563 67.7656 25.125 67.2812L23.6562 65.8125C22.7969 66.6719 22.3125 67.8281 22.3125 69.0625V70.7031H14V64.4688H26.4687V64.4844Z" fill="#D5AA6D"/>
<path d="M21.6719 40.5781L20.9219 42.0781L16.8281 38.6562L17.3594 38.75C18.9375 39 20.4062 39.6563 21.6719 40.5781Z" fill="#D5AA6D"/>
</svg>
