<svg width="80" height="80" viewBox="0 0 80 80" fill="none" xmlns="http://www.w3.org/2000/svg">
<path d="M72.0646 36.2222L63.5385 16.0741H68.7692V11.037H42.6154V6H37.3846V11.037H11.2308V16.0741H16.4615L7.98769 36.2222H6V41.2593H6.78462C7.60062 43.7677 9.25877 45.9437 11.4923 47.4548C13.6979 48.9949 16.3525 49.8242 19.0769 49.8242C21.8013 49.8242 24.456 48.9949 26.6615 47.4548C28.897 45.9345 30.5657 43.7625 31.4215 41.2593H32.1538V36.2222H29.8L21.0646 16.0741H37.3846V56.3704H26.9231L24.8831 57.277L14.4215 69.92L16.4615 74H63.5385L65.5785 69.92L55.1169 57.277L53.0769 56.3704H42.6154V16.0741H58.9877L50.2523 36.2222H47.8462V41.2593H48.6308C49.4863 43.7548 51.1373 45.927 53.3489 47.4667C55.5606 49.0064 58.2201 49.8352 60.9492 49.8352C63.6783 49.8352 66.3379 49.0064 68.5495 47.4667C70.7612 45.927 72.4122 43.7548 73.2677 41.2593H74V36.2222H72.0646ZM22.8431 43.8281C21.6895 44.4429 20.3953 44.7718 19.0769 44.7852C17.7742 44.7786 16.4951 44.449 15.3631 43.8281C14.2087 43.2188 13.2361 42.3343 12.5385 41.2593H25.6154C24.9236 42.3212 23.9716 43.2033 22.8431 43.8281ZM24.1508 36.2222H13.6892L18.92 24.1333L24.1508 36.2222ZM51.8215 61.4074L58.3077 68.963H21.6923L28.1785 61.4074H51.8215ZM61.1323 24.2341L66.3631 36.323H55.9015L61.1323 24.2341ZM64.6892 43.9289C63.5456 44.5671 62.2448 44.8977 60.9231 44.8859C59.617 44.9038 58.3314 44.5725 57.2092 43.9289C56.0531 43.2774 55.0827 42.3602 54.3846 41.2593H67.4615C66.8131 42.38 65.8531 43.3045 64.6892 43.9289Z" fill="#D5AA6D"/>
</svg>
