<svg width="80" height="90" viewBox="0 0 80 90" fill="none" xmlns="http://www.w3.org/2000/svg">
<path d="M73.3594 30.2871V10.4063H54.3906C53.9531 8.96484 52.7656 7.91016 51.3438 7.91016H51.0313C49.3438 7.91016 47.9375 9.38672 47.8125 11.2676L46.0625 36.8965L40.3125 32.5898C39.2031 31.7461 37.9844 31.1484 36.7031 30.7617C38.8437 28.9512 40.2344 26.0684 40.2344 22.834C40.2344 17.3496 36.2656 12.8848 31.3906 12.8848C26.5156 12.8848 22.5469 17.3496 22.5469 22.834C22.5469 25.752 23.6719 28.3711 25.4531 30.1816C24.0781 29.9707 22.75 29.4434 21.5625 28.6172L10.4688 20.9531C9.89062 20.5488 9.21875 20.3379 8.53125 20.3379C6.5 20.3379 4.84375 22.2012 4.84375 24.4863V24.9785C4.84375 26.3848 5.46875 27.6855 6.53125 28.459L21.1094 39.0762C22.6875 40.2188 23.625 42.1699 23.625 44.2969V63.9668C16.0625 67.9043 9.85938 74.6543 6.125 83.0566L5.26563 84.9902H72.9375L72.0781 83.0566C67.7812 73.3887 60.1719 65.918 51.1094 62.4023L51.8437 51.75L52.2813 52.0488C52.8594 52.4531 53.5312 52.6641 54.2188 52.6641C56.25 52.6641 57.9063 50.8008 57.9063 48.5156V48.0059C57.9063 46.6172 57.2969 45.3164 56.2656 44.5605L52.5313 41.7656L53.3125 30.3047H73.3594V30.2871ZM54.4844 12.8848H71.1406V27.8086H53.4688L54.4844 12.8848ZM24.7344 22.834C24.7344 18.7207 27.7031 15.3809 31.3594 15.3809C35.0156 15.3809 37.9844 18.7207 37.9844 22.834C37.9844 26.9473 35.0156 30.2871 31.3594 30.2871C27.7031 30.2871 24.7344 26.9473 24.7344 22.834ZM32.4375 41.1504L31.3594 42.9609L30.2813 41.1504L30.9844 32.7656H31.7344L32.4375 41.1504ZM22.3125 36.9844L7.73438 26.3672C7.3125 26.0508 7.0625 25.541 7.0625 24.9609V24.4687C7.0625 23.5547 7.73438 22.7988 8.54688 22.7988C8.82813 22.7988 9.09375 22.8867 9.32813 23.0449L20.4063 30.709C22.3281 32.0449 24.5312 32.7305 26.7812 32.7305H28.7969L28.0469 41.748L31.3906 47.3906L34.7344 41.748L33.9844 32.7656C35.8125 32.8535 37.5625 33.4687 39.0781 34.6113L45.8594 39.709L45.5312 44.4375L39.4219 40.2012H36.8906V75.0586C36.8906 76.3945 35.9219 77.4844 34.625 77.4844C33.4375 77.4844 32.4688 76.3945 32.4688 75.0586V52.6641H30.2656V75.0938C30.2656 76.4297 29.2969 77.5195 28 77.5195C26.8125 77.5195 25.8437 76.4297 25.8437 75.0938V44.2969C25.8437 41.3262 24.5156 38.6016 22.3125 36.9844ZM45.3281 47.25L44.4219 60.5742C42.6562 60.293 40.875 60.1348 39.0937 60.1348V42.9258L45.3281 47.25ZM17.2812 71.3496C17.8125 72.0176 18.1094 72.8965 18.1094 73.793C18.1094 75.8496 16.625 77.5195 14.7969 77.5195C13.9687 77.5195 13.1719 77.168 12.5781 76.5527C13.9844 74.6543 15.5625 72.9141 17.2812 71.3496ZM61.625 72.0176C63.2187 73.5645 64.7031 75.252 66.0313 77.0977C65.5625 77.3789 65.0469 77.5371 64.5156 77.5371C62.6875 77.5371 61.2031 75.8672 61.2031 73.8105C61.2031 73.1602 61.3594 72.5625 61.625 72.0176ZM59.8906 70.4355C59.3125 71.4375 58.9844 72.5801 58.9844 73.793C58.9844 77.2207 61.4687 80.0156 64.5156 80.0156C65.5469 80.0156 66.5313 79.6816 67.375 79.084C68.0625 80.1738 68.7187 81.3164 69.2969 82.4941H8.89063C9.57813 81.1055 10.375 79.7871 11.2031 78.5215C12.1875 79.4707 13.4531 80.0156 14.7812 80.0156C17.8281 80.0156 20.3125 77.2207 20.3125 73.793C20.3125 72.334 19.8438 70.9453 19.0313 69.8379C20.4844 68.6777 22.0156 67.6406 23.625 66.7266V75.0762C23.625 77.7832 25.5938 79.998 28.0938 79.998C29.4063 79.998 30.5625 79.3301 31.3594 78.3105C32.1719 79.3301 33.3594 79.998 34.7187 79.998C37.125 79.998 39.0937 77.7832 39.0937 75.0762V62.5957C40.8125 62.5957 42.5469 62.7363 44.25 63.0352L43.5313 73.582C43.5313 73.6699 43.5156 73.7754 43.5156 73.8633C43.5156 75.8672 44.9688 77.502 46.75 77.502H47.0781C48.7656 77.502 50.1719 76.0254 50.2969 74.1445L50.9219 64.9336C54.1562 66.2695 57.1719 68.1328 59.8906 70.4355ZM48.0937 73.9863C48.0469 74.584 47.6094 75.041 47.0781 75.041H46.75C46.1875 75.041 45.7344 74.5312 45.7344 73.793L50 11.4609C50.0469 10.8633 50.4844 10.4063 51.0156 10.4063H51.3281C51.8906 10.4063 52.3438 10.916 52.3438 11.6367L48.0937 73.9863ZM55.0156 46.6172C55.4219 46.9336 55.6719 47.4434 55.6719 48.0059V48.5156C55.6719 49.4297 55 50.1855 54.1875 50.1855C53.9062 50.1855 53.6406 50.0977 53.4062 49.9395L52 48.9727L52.2969 44.6133L55.0156 46.6172Z" fill="#D5AA6D" stroke="#D5AA6D" stroke-miterlimit="10"/>
<path d="M69.3125 82.4941H8.89062C9.57813 81.1055 10.375 79.7871 11.2031 78.5215C12.1875 79.4707 13.4531 80.0156 14.7812 80.0156C17.8281 80.0156 20.3125 77.2207 20.3125 73.793C20.3125 72.334 19.8438 70.9453 19.0313 69.8379C20.4844 68.6777 22.0156 67.6406 23.625 66.7266V75.0762C23.625 77.7832 25.5938 79.998 28.0938 79.998C29.4063 79.998 30.5625 79.3301 31.3594 78.3105C32.1719 79.3301 33.3594 79.998 34.7187 79.998C37.125 79.998 39.0937 77.7832 39.0937 75.0762V62.5957C40.8125 62.5957 42.5469 62.7363 44.25 63.0352L43.5313 73.582C43.5313 73.6699 43.5156 73.7754 43.5156 73.8633C43.5156 75.8672 44.9688 77.502 46.75 77.502H47.0781C48.7656 77.502 50.1719 76.0254 50.2969 74.1445L50.9219 64.9336C54.1406 66.252 57.1719 68.1152 59.8906 70.418C59.3125 71.4199 58.9844 72.5625 58.9844 73.7754C58.9844 77.2031 61.4688 79.998 64.5156 79.998C65.5469 79.998 66.5313 79.6641 67.375 79.0664C68.0781 80.1914 68.7188 81.334 69.3125 82.4941Z" fill="#D5AA6D" stroke="black" stroke-miterlimit="10"/>
<path d="M55.6719 48.0059V48.5156C55.6719 49.4297 55 50.1855 54.1875 50.1855C53.9063 50.1855 53.6406 50.0977 53.4062 49.9395L52 48.9727L52.2969 44.6133L55 46.6348C55.4375 46.9336 55.6719 47.4434 55.6719 48.0059Z" fill="#D5AA6D" stroke="#D5AA6D" stroke-miterlimit="10"/>
<path d="M45.8437 39.7441L45.5156 44.4727L39.4062 40.2363H36.875V75.0938C36.875 76.4297 35.9063 77.5195 34.6094 77.5195C33.4219 77.5195 32.4531 76.4297 32.4531 75.0938V52.6641H30.25V75.0938C30.25 76.4297 29.2813 77.5195 27.9844 77.5195C26.7969 77.5195 25.8281 76.4297 25.8281 75.0938V44.2969C25.8281 41.3262 24.5 38.6016 22.2969 36.9844L7.73437 26.3672C7.3125 26.0508 7.0625 25.541 7.0625 24.9609V24.4688C7.0625 23.5547 7.73438 22.7988 8.54688 22.7988C8.82812 22.7988 9.09375 22.8867 9.32812 23.0449L20.4063 30.709C22.3281 32.0449 24.5312 32.7305 26.7812 32.7305H28.7969L28.0469 41.748L31.3906 47.3906L34.7344 41.748L33.9844 32.7656C35.8125 32.8535 37.5625 33.4687 39.0781 34.6113L45.8437 39.7441Z" fill="#D5AA6D" stroke="black" stroke-miterlimit="10"/>
<path d="M32.4375 41.1504L31.3594 42.9609L30.2969 41.1504L30.9844 32.7832H31.7344L32.4375 41.1504Z" fill="#D5AA6D" stroke="#D5AA6D" stroke-miterlimit="10"/>
<path d="M71.1406 12.8848V27.8086H53.4688L54.4844 12.8848H71.1406Z" fill="#D5AA6D" stroke="black" stroke-miterlimit="10"/>
<path d="M52.3594 11.6367L48.0937 73.9863C48.0469 74.584 47.6094 75.041 47.0781 75.041H46.75C46.1875 75.041 45.7344 74.5313 45.7344 73.793L50 11.4609C50.0469 10.8633 50.4844 10.4062 51.0156 10.4062H51.3281C51.9062 10.4062 52.3594 10.916 52.3594 11.6367Z" fill="#D5AA6D" stroke="black" stroke-miterlimit="10"/>
<path d="M38 22.834C38 26.9473 35.0313 30.2871 31.375 30.2871C27.7188 30.2871 24.75 26.9473 24.75 22.834C24.75 18.7207 27.7188 15.3809 31.375 15.3809C35.0156 15.3633 38 18.7207 38 22.834Z" fill="#D5AA6D" stroke="black" stroke-miterlimit="10"/>
<path d="M66.7344 15.3633H68.9375V17.8418H66.7344V15.3633Z" fill="#D5AA6D" stroke="#D5AA6D" stroke-miterlimit="10"/>
<path d="M62.3125 15.3633H64.5156V17.8418H62.3125V15.3633Z" fill="#D5AA6D" stroke="#D5AA6D" stroke-miterlimit="10"/>
<path d="M57.8906 15.3633H60.0938V17.8418H57.8906V15.3633Z" fill="#D5AA6D" stroke="#D5AA6D" stroke-miterlimit="10"/>
<path d="M54.5781 71.3145H56.7813V73.793H54.5781V71.3145Z" fill="#D5AA6D" stroke="#D5AA6D" stroke-miterlimit="10"/>
<path d="M51.25 77.5371H53.4531V80.0156H51.25V77.5371Z" fill="#D5AA6D" stroke="#D5AA6D" stroke-miterlimit="10"/>
</svg>
