<svg width="80" height="80" viewBox="0 0 80 80" fill="none" xmlns="http://www.w3.org/2000/svg">
<path d="M78.3838 60.9912L63.955 46.5625L65 45.5175L65.3662 45.8838C65.61 46.1275 65.93 46.25 66.25 46.25C66.57 46.25 66.89 46.1275 67.1338 45.8838L70.8838 42.1338C71.3725 41.645 71.3725 40.855 70.8838 40.3662L63.75 33.2325V10C63.75 5.175 59.8237 1.25 55 1.25H7.5C4.05375 1.25 1.25 4.05375 1.25 7.5V17.5C1.25 18.19 1.80875 18.75 2.5 18.75H11.25V72.5C11.25 75.9462 14.0538 78.75 17.5 78.75H62.5C65.9462 78.75 68.75 75.9462 68.75 72.5V70C68.75 69.31 68.1912 68.75 67.5 68.75H63.75V56.1425L73.4912 65.8838C73.735 66.1275 74.055 66.25 74.375 66.25C74.695 66.25 75.015 66.1275 75.2588 65.8838L78.3838 62.7588C78.8725 62.27 78.8725 61.48 78.3838 60.9912ZM56.25 50.7325L51.7675 46.25L58.75 39.2675L63.2325 43.75L56.25 50.7325ZM55.7325 53.75L53.75 55.7325L46.7675 48.75L48.75 46.7675L55.7325 53.75ZM66.25 43.2325L59.2675 36.25L61.25 34.2675L68.2325 41.25L66.25 43.2325ZM11.25 16.25H3.75V7.5C3.75 5.4325 5.4325 3.75 7.5 3.75C9.5675 3.75 11.25 5.4325 11.25 7.5V16.25ZM66.25 72.5C66.25 74.5675 64.5675 76.25 62.5 76.25H22.4975C23.2837 75.205 23.75 73.9062 23.75 72.5V71.25H66.25V72.5ZM61.25 68.75H22.5C21.8088 68.75 21.25 69.31 21.25 70V72.5C21.25 74.5675 19.5675 76.25 17.5 76.25C15.4325 76.25 13.75 74.5675 13.75 72.5V7.5C13.75 6.0875 13.2612 4.7975 12.4675 3.75H55C58.4462 3.75 61.25 6.55375 61.25 10V31.25C60.93 31.25 60.61 31.3725 60.3662 31.6162L56.6162 35.3662C56.1275 35.855 56.1275 36.645 56.6162 37.1338L56.9825 37.5L50 44.4825L49.6338 44.1162C49.145 43.6275 48.355 43.6275 47.8662 44.1162L44.1162 47.8662C43.6275 48.355 43.6275 49.145 44.1162 49.6338L52.8662 58.3838C53.11 58.6275 53.43 58.75 53.75 58.75C54.07 58.75 54.39 58.6275 54.6338 58.3838L58.3838 54.6338C58.8725 54.145 58.8725 53.355 58.3838 52.8662L58.0175 52.5L59.0625 51.455L61.25 53.6425V68.75ZM74.375 63.2325L60.83 49.6875L62.1875 48.33L75.7325 61.875L74.375 63.2325Z" fill="#D5AA6D"/>
<path d="M17.5 23.75H58.75V26.25H17.5V23.75Z" fill="#D5AA6D"/>
<path d="M17.5 33.75H53.75V36.25H17.5V33.75Z" fill="#D5AA6D"/>
<path d="M17.5 28.75H58.75V31.25H17.5V28.75Z" fill="#D5AA6D"/>
<path d="M17.5 13.75H58.75V16.25H17.5V13.75Z" fill="#D5AA6D"/>
<path d="M17.5 8.75H58.75V11.25H17.5V8.75Z" fill="#D5AA6D"/>
<path d="M17.5 18.75H58.75V21.25H17.5V18.75Z" fill="#D5AA6D"/>
<path d="M17.5 38.75H51.25V41.25H17.5V38.75Z" fill="#D5AA6D"/>
<path d="M27.5 43.75C21.2963 43.75 16.25 48.7975 16.25 55C16.25 61.2025 21.2963 66.25 27.5 66.25C33.7037 66.25 38.75 61.2025 38.75 55C38.75 48.7975 33.7037 43.75 27.5 43.75ZM27.5 63.75C22.6763 63.75 18.75 59.825 18.75 55C18.75 50.175 22.6763 46.25 27.5 46.25C32.3237 46.25 36.25 50.175 36.25 55C36.25 59.825 32.3237 63.75 27.5 63.75Z" fill="#D5AA6D"/>
<path d="M27.5 48.75C24.0538 48.75 21.25 51.5538 21.25 55C21.25 58.4462 24.0538 61.25 27.5 61.25C30.9462 61.25 33.75 58.4462 33.75 55C33.75 51.5538 30.9462 48.75 27.5 48.75ZM27.5 58.75C25.4325 58.75 23.75 57.0675 23.75 55C23.75 52.9325 25.4325 51.25 27.5 51.25C29.5675 51.25 31.25 52.9325 31.25 55C31.25 57.0675 29.5675 58.75 27.5 58.75Z" fill="#D5AA6D"/>
<path d="M48.75 61.25C48.75 60.7 48.39 60.2125 47.8625 60.0538C47.3375 59.8938 46.765 60.0975 46.46 60.5563L46.04 61.1863C44.97 62.7913 43.1787 63.75 41.25 63.75V66.25C43.4313 66.25 45.49 65.395 47.015 63.9063C47.9 65.3125 49.4675 66.25 51.25 66.25H56.25V63.75H51.25C49.8712 63.75 48.75 62.6288 48.75 61.25Z" fill="#D5AA6D"/>
</svg>
