<svg width="40" height="40" viewBox="0 0 40 40" fill="none" xmlns="http://www.w3.org/2000/svg">
<path fill-rule="evenodd" clip-rule="evenodd" d="M4.71193 1.27769C6.56722 -0.577597 9.62874 -0.386993 11.2396 1.68409L15.7238 7.44957C16.5468 8.5076 16.8375 9.88521 16.5125 11.1856L15.1443 16.6582C14.9998 17.236 15.1691 17.8472 15.5903 18.2683L21.7317 24.4098C22.1528 24.8309 22.764 25.0002 23.3418 24.8557L28.8144 23.4876C30.1148 23.1625 31.4924 23.4533 32.5504 24.2762L38.3159 28.7604C40.387 30.3713 40.5776 33.4328 38.7223 35.2881L36.1375 37.8729C34.2882 39.7222 31.5222 40.5342 28.9444 39.6279C22.5439 37.3776 16.536 33.6935 11.4212 28.5788C6.30649 23.464 2.62237 17.4561 0.372095 11.0556C-0.534206 8.47781 0.277825 5.7118 2.12713 3.8625L4.71193 1.27769Z" fill="#D5AA6D"/>
</svg>
